<?xml version="1.0" encoding="UTF-8" standalone="no"?>
<!-- Created with Inkscape (http://www.inkscape.org/) -->

<svg
   width="700"
   height="700"
   viewBox="0 0 185.20833 185.20833"
   version="1.1"
   id="svg1"
   inkscape:version="1.4 (e7c3feb100, 2024-10-09)"
   sodipodi:docname="favicon.svg"
   inkscape:export-filename="favicon-64x64.png"
   inkscape:export-xdpi="8.7799997"
   inkscape:export-ydpi="8.7799997"
   xmlns:inkscape="http://www.inkscape.org/namespaces/inkscape"
   xmlns:sodipodi="http://sodipodi.sourceforge.net/DTD/sodipodi-0.dtd"
   xmlns="http://www.w3.org/2000/svg"
   xmlns:svg="http://www.w3.org/2000/svg">
  <sodipodi:namedview
     id="namedview1"
     pagecolor="#505050"
     bordercolor="#ffffff"
     borderopacity="1"
     inkscape:showpageshadow="0"
     inkscape:pageopacity="0"
     inkscape:pagecheckerboard="1"
     inkscape:deskcolor="#505050"
     inkscape:document-units="mm"
     inkscape:zoom="0.71815476"
     inkscape:cx="355.07667"
     inkscape:cy="354.38044"
     inkscape:window-width="1898"
     inkscape:window-height="1012"
     inkscape:window-x="0"
     inkscape:window-y="0"
     inkscape:window-maximized="1"
     inkscape:current-layer="layer1" />
  <defs
     id="defs1" />
  <g
     inkscape:label="Capa 1"
     inkscape:groupmode="layer"
     id="layer1">
    <path
       style="font-weight:bold;font-size:167.846px;font-family:Iosevka;-inkscape-font-specification:'Iosevka Bold';fill:#1a1a1a;stroke:#333333;stroke-width:2.62258"
       d="m 46.048501,154.95896 q -4.19615,0 -8.3923,-0.83923 -4.028303,-0.83923 -7.720915,-2.85338 -3.692612,-2.01416 -6.545994,-5.20323 -2.853382,-3.18907 -4.699689,-6.88168 -1.846306,-3.86046 -2.685536,-7.88877 -0.83923,-4.19615 -0.83923,-8.3923 V 121.8933 H 33.96359 v 0.50354 q 0,2.85338 0.503538,5.70676 0.671384,2.85338 2.014152,5.37107 1.510613,2.34985 4.028303,3.86046 2.685536,1.51061 5.538918,1.51061 2.181998,0 4.19615,-0.83923 2.014152,-0.83923 3.35692,-2.51769 1.510614,-1.67846 2.349844,-3.69261 0.83923,-2.01415 1.342768,-4.0283 0.671384,-2.182 0.83923,-4.19615 0.167846,-2.182 0.167846,-4.364 V 46.362592 H 38.159739 V 30.249377 h 38.772425 v 88.958383 q 0,4.53184 -0.671384,9.06369 -0.503538,4.36399 -2.181998,8.56014 -1.67846,4.0283 -4.531842,7.72092 -2.685536,3.52476 -6.545994,6.04245 -3.692611,2.34985 -8.056607,3.35692 -4.363996,1.00708 -8.895838,1.00708 z M 98.248605,153.61619 123.25766,30.249377 h 21.48428 L 169.751,153.61619 h -19.13445 l -5.03538,-27.52674 h -23.16274 l -5.03538,27.52674 z m 27.023205,-43.63996 h 17.45598 l -7.04953,-38.604585 q -0.33569,-2.349844 -0.83923,-4.699688 -0.33569,-2.51769 -0.83923,-4.867534 -0.50354,2.349844 -1.00708,4.867534 -0.33569,2.349844 -0.67138,4.699688 z"
       id="text1"
       aria-label="JA" />
  </g>
</svg>
