<?xml version="1.0" encoding="UTF-8" standalone="no"?>
<!-- Created with Inkscape (http://www.inkscape.org/) -->

<svg
   width="2000"
   height="1000"
   viewBox="0 0 2000 1000"
   version="1.1"
   id="svg1"
   xml:space="preserve"
   inkscape:version="1.4 (e7c3feb100, 2024-10-09)"
   sodipodi:docname="site cover.svg"
   inkscape:export-filename="../../static/images/site cover.png"
   inkscape:export-xdpi="96"
   inkscape:export-ydpi="96"
   xmlns:inkscape="http://www.inkscape.org/namespaces/inkscape"
   xmlns:sodipodi="http://sodipodi.sourceforge.net/DTD/sodipodi-0.dtd"
   xmlns:xlink="http://www.w3.org/1999/xlink"
   xmlns="http://www.w3.org/2000/svg"
   xmlns:svg="http://www.w3.org/2000/svg"><sodipodi:namedview
     id="namedview1"
     pagecolor="#505050"
     bordercolor="#ffffff"
     borderopacity="1"
     inkscape:showpageshadow="true"
     inkscape:pageopacity="0"
     inkscape:pagecheckerboard="1"
     inkscape:deskcolor="#505050"
     inkscape:document-units="mm"
     inkscape:zoom="0.42050406"
     inkscape:cx="1059.4428"
     inkscape:cy="476.80872"
     inkscape:window-width="1898"
     inkscape:window-height="1012"
     inkscape:window-x="0"
     inkscape:window-y="0"
     inkscape:window-maximized="1"
     inkscape:current-layer="layer2"
     inkscape:clip-to-page="true" /><defs
     id="defs1"><clipPath
       clipPathUnits="userSpaceOnUse"
       id="clipPath2"><circle
         style="fill:none;stroke:#000000;stroke-width:3.09643"
         id="circle2"
         cx="1638.6718"
         cy="500"
         r="233.18126" /></clipPath><filter
       inkscape:collect="always"
       style="color-interpolation-filters:sRGB"
       id="filter3"
       x="-0.039343596"
       y="-0.21158687"
       width="1.0786872"
       height="1.4231737"><feGaussianBlur
         inkscape:collect="always"
         stdDeviation="19.011251"
         id="feGaussianBlur3" /></filter><filter
       inkscape:collect="always"
       style="color-interpolation-filters:sRGB"
       id="filter4"
       x="-0.039341904"
       y="-0.58367351"
       width="1.0786838"
       height="2.167347"><feGaussianBlur
         inkscape:collect="always"
         stdDeviation="19.011251"
         id="feGaussianBlur4" /></filter><filter
       inkscape:collect="always"
       style="color-interpolation-filters:sRGB"
       id="filter5"
       x="-0.095388932"
       y="-0.09539002"
       width="1.1907779"
       height="1.19078"><feGaussianBlur
         inkscape:collect="always"
         stdDeviation="19.011251"
         id="feGaussianBlur5" /></filter><filter
       inkscape:collect="always"
       style="color-interpolation-filters:sRGB"
       id="filter6"
       x="-0.009"
       y="-0.018"
       width="1.018"
       height="1.036"><feGaussianBlur
         inkscape:collect="always"
         stdDeviation="7.7707434"
         id="feGaussianBlur6" /></filter></defs><g
     inkscape:groupmode="layer"
     id="layer2"
     inkscape:label="background"><image
       width="2072.1982"
       height="1036.0991"
       preserveAspectRatio="none"
       style="image-rendering:optimizeQuality;filter:url(#filter6)"
       xlink:href="../../../../Im%C3%A1genes/vecteezy_isometric-vintage-computers-old-desktop-pc_14070903_504/vecteezy_isometric-vintage-computers-old-desktop-pc_14070903.jpg"
       id="image1"
       x="-36.099121"
       y="-18.049561"
       inkscape:label="retro computers pattern" /></g><g
     inkscape:label="shadows"
     inkscape:groupmode="layer"
     id="g3"
     style="display:inline"><path
       id="circle3"
       style="mix-blend-mode:normal;fill:#000000;stroke:none;stroke-width:3.09643;filter:url(#filter5)"
       d="m 1636.4941,260.84961 c -35.3169,0.29991 -70.5367,8.56477 -102.296,24.01742 -24.6853,11.98991 -47.2853,28.25223 -66.4706,47.8767 -23.8872,24.39306 -42.4517,53.96625 -54.0222,86.08837 -11.4508,31.71468 -16.1006,65.86535 -13.4897,99.48545 2.5761,33.67871 12.3824,66.7875 28.6155,96.41132 15.1582,27.7461 35.8823,52.43367 60.5995,72.15079 26.4063,21.10152 57.334,36.51506 90.0946,44.85006 32.4724,8.29749 66.6949,9.67839 99.7229,3.96174 28.7651,-4.94959 56.6062,-15.21022 81.6854,-30.14593 30.6116,-18.18902 57.0752,-43.31321 76.7863,-72.97131 17.7237,-26.59676 30.0495,-56.77667 35.9527,-88.19098 6.0638,-32.04892 5.5128,-65.34128 -1.7238,-97.15151 -7.3545,-32.66919 -21.7093,-63.73179 -41.7846,-90.53106 -19.6957,-26.364 -44.9211,-48.56288 -73.5571,-64.77578 -30.795,-17.49664 -65.5337,-27.97625 -100.8584,-30.4918 -6.4061,-0.46289 -12.8319,-0.65137 -19.2545,-0.58348 z" /></g><g
     inkscape:label="fg"
     inkscape:groupmode="layer"
     id="layer1"
     style="display:inline"><g
       id="g7"
       inkscape:label="copy"
       transform="translate(0,7.1918673)"><path
         id="path3"
         style="font-weight:bold;font-size:68.0227px;font-family:Iosevka;-inkscape-font-specification:'Iosevka Bold';mix-blend-mode:normal;fill:#000000;stroke:none;stroke-width:4.25142;filter:url(#filter4)"
         inkscape:label="shadow"
         d="m 1119.6016,564.87695 c -4.2606,0.10744 -8.5843,2.71997 -9.9841,6.86496 -1.0538,2.78721 -1.1274,5.95417 -0.1292,8.76786 -7.6368,-0.013 -15.2783,0.0261 -22.9121,-0.0195 -5.4997,-1.4373 -11.9256,0.12865 -15.6164,4.59643 -0.9444,1.114 -1.7262,2.3609 -2.368,3.67115 -1.6982,-3.81995 -5.0129,-6.92923 -9.051,-8.1157 -3.163,-0.99286 -6.624,-0.85186 -9.7556,0.18992 -1.5553,-0.60036 -3.2496,-0.2074 -4.8696,-0.32226 -2.6926,0 -5.3851,0 -8.0777,0 0,-4.875 0,-9.75 0,-14.625 -12.4798,0 -24.9596,0 -37.43946,0 0,20.66536 0,41.33072 0,61.99609 22.46486,0 44.92966,0 67.39456,0 0.3185,4.49506 2.6515,8.80809 6.3198,11.44467 3.7036,2.79985 8.4494,3.81995 13.0223,3.7108 4.975,-0.082 10.1402,-1.76793 13.5523,-5.52762 2.4926,-2.64284 4.1438,-6.05228 4.756,-9.62785 22.8138,0 45.6276,0 68.4414,0 0,-1.92643 0,-3.85287 0,-5.7793 3.2225,3.95916 8.2972,6.04978 13.3253,6.27134 4.3688,0.24327 8.9196,-0.34457 12.7433,-2.6002 2.5533,-1.46109 4.7681,-3.56482 6.2009,-6.1477 2.1576,3.7909 5.8175,6.65462 10.0009,7.87679 3.9489,1.16343 8.1873,1.15725 12.2119,0.40479 5.1453,-1.06848 9.9528,-4.33696 12.2614,-9.14014 0.4797,-0.9601 0.8463,-1.97561 1.1137,-3.01449 0,4.04297 0,8.08594 0,12.12891 6.5384,0 13.0768,0 19.6152,0 0.036,-8.21609 -0.05,-16.43783 0.043,-24.65039 1.4807,0.12416 2.9744,-0.0285 4.4629,0.0269 3.8079,-4.6e-4 7.6159,-0.002 11.4238,-0.001 -0.1557,-4.75087 0.3249,-9.67119 -1.3164,-14.23047 -1.1277,-3.19443 -3.3527,-6.04465 -6.3999,-7.59757 -3.3194,-1.73711 -7.3773,-1.89141 -10.8833,-0.62899 -1.4236,-0.52862 -2.8655,-0.19607 -4.3262,-0.28906 -4.2064,0 -8.4127,0 -12.6191,0 0,4.50325 0,9.00651 0,13.50976 -1.3969,-6.22788 -6.2856,-11.63968 -12.509,-13.27484 -5.5863,-1.32208 -11.7994,-1.1184 -16.8763,1.7837 -2.7227,1.58703 -4.9473,3.96884 -6.4643,6.72161 -2.4842,-4.53925 -7.0058,-8.00363 -12.1623,-8.81408 -4.7145,-0.89411 -9.7749,-0.58737 -14.1695,1.43464 -3.256,1.58389 -5.9537,4.23337 -7.7014,7.39506 -1.5646,-3.76581 -4.6039,-6.97099 -8.4853,-8.34893 -3.3658,-1.28177 -7.1586,-1.21673 -10.5557,-0.0847 -1.5553,-0.60036 -3.2496,-0.2074 -4.8696,-0.32226 -4.0168,0 -8.0336,0 -12.0504,0 0,9.61328 0,19.22656 0,28.83984 -1.5774,0 -3.1549,0 -4.7324,0 0,-9.01693 0,-18.03385 0,-27.05078 2.1354,-3.89421 1.9838,-8.98494 -0.4357,-12.71551 -1.8622,-2.81002 -5.1344,-4.46869 -8.4627,-4.6673 -0.5547,-0.0423 -1.11,-0.0521 -1.666,-0.0391 z m -408.53129,0.47852 c -4.2686,0.13275 -8.65469,1.33754 -11.91786,4.2026 -4.0333,3.34281 -6.21937,8.54243 -6.38878,13.72123 -0.25647,6.05581 2.14886,12.15745 6.4913,16.39115 1.22964,1.24426 2.58625,2.36002 4.02433,3.35494 -3.7155,0 -7.43099,0 -11.14649,0 -0.0368,4.81342 -0.51508,9.85586 1.42188,14.40234 2.43294,6.17297 8.71122,10.41208 15.26758,10.85547 5.4141,0.5192 11.23295,-0.40074 15.61014,-3.82319 1.77993,-1.40563 3.24948,-3.18895 4.35275,-5.16704 2.20738,3.98516 6.01087,7.05367 10.41171,8.26904 3.82556,1.08662 7.91663,1.07337 11.80508,0.33838 4.62802,-0.97784 8.84724,-3.84769 11.28009,-7.92872 2.20904,-3.5365 3.02465,-7.75911 3.00216,-11.88491 0.0398,-2.08605 5.3e-4,-4.17248 -0.001,-6.25864 0.90039,10e-6 1.80078,0 2.70118,0 0,8.68425 -10e-6,17.36849 0,26.05274 6.51692,0 13.03385,0 19.55078,0 0,-8.68425 0,-17.36849 0,-26.05274 3.31054,0 6.62109,0 9.93164,0 0,-0.92968 0,-1.85937 0,-2.78906 1.14843,0 2.29687,0 3.44531,0 0.0334,4.5545 -0.14064,9.12089 0.19922,13.66602 0.58806,5.12419 3.0154,10.30155 7.44726,13.16797 4.81445,3.0973 11.17208,3.27024 16.37133,1.05617 2.98542,-1.35547 5.34571,-3.84155 6.91774,-6.68508 0.4199,2.54558 0.84124,5.09092 1.25976,7.63672 9.78948,7.5e-4 19.57587,0.002 29.36524,0 0.44848,-2.7282 0.9011,-5.45572 1.35156,-8.18359 1.63947,3.81861 5.03076,6.80245 9.02785,7.94106 3.55261,1.05049 7.44059,1.05724 10.97215,-0.0856 1.59387,0.61342 3.33094,0.21194 4.99101,0.32813 10.47631,0 20.95261,0 31.42891,0 0.036,-8.23108 -0.0502,-16.46259 0.043,-24.69336 2.50032,0.16895 5.01245,0.0177 7.51758,0.0684 0.82812,0 1.65625,0 2.48437,0 0.0525,4.14364 -0.30784,8.40765 1.0329,12.40375 1.35201,4.39009 4.33058,8.33221 8.43585,10.47906 4.38013,2.33692 9.56139,2.66344 14.40039,1.97461 5.11844,-0.79928 10.08359,-3.61689 12.72626,-8.17502 1.64904,-2.71859 2.3966,-5.90822 2.37354,-9.07269 0.18143,-3.43577 0.0659,-6.87781 0.10723,-10.31674 -0.0294,-4.24699 -0.7394,-8.64666 -3.11914,-12.25391 -2.55121,-4.06782 -6.803,-7.07852 -11.56809,-7.86498 -5.20723,-0.94902 -10.8833,-0.55934 -15.52485,2.16782 -1.99894,1.14931 -3.71223,2.8203 -5.07698,4.62685 -1.65215,-3.33838 -4.72346,-5.99771 -8.38733,-6.83816 -2.66359,-0.66768 -5.52744,-0.52755 -8.10876,0.41238 -1.42388,-0.52836 -2.87084,-0.19615 -4.33203,-0.28906 -4.20638,0 -8.41276,0 -12.61914,0 0,4.89453 0,9.78906 0,14.68359 -0.55702,-4.97174 -3.3667,-9.68073 -7.6437,-12.3279 -3.33713,-2.16721 -7.37373,-2.90553 -11.29841,-2.90574 -4.12449,-0.0305 -8.35672,0.88498 -11.82157,3.19848 0.14478,-0.88298 0.29181,-1.7656 0.4375,-2.64843 -6.77994,0 -13.55989,0 -20.33984,0 -0.19942,3.30996 -0.4011,6.61978 -0.60156,9.92968 -1.04818,0 -2.09636,0 -3.14453,0 -0.20047,-3.3099 -0.40215,-6.61972 -0.60157,-9.92968 -8.36263,0 -16.72526,0 -25.08789,0 0,-4.875 0,-9.75 0,-14.625 -6.53971,0 -13.07942,0 -19.61914,0 0,4.875 0,9.75 0,14.625 -0.78575,0.23322 -0.84251,-0.30072 -0.82226,-0.94922 -0.39869,-4.20748 -2.34461,-8.34881 -5.7333,-10.95757 -3.55,-2.82106 -8.32263,-3.61938 -12.73763,-3.11412 -4.4553,0.54703 -8.67968,3.11037 -10.94845,7.02634 -1.98244,3.21228 -2.71491,7.04752 -2.69586,10.78363 -2.39843,0 -4.79687,0 -7.19531,0 0,1.02604 0,2.05208 0,3.07812 -2.64821,-3.23215 -6.49822,-5.44077 -10.64262,-6.0249 -4.77916,-0.80964 -9.90811,-0.42589 -14.27147,1.80107 -1.89345,1.00099 -3.58077,2.37975 -4.97458,4.00313 0.0581,-3.7295 -0.30443,-7.57526 -2.01642,-10.95029 -2.32359,-4.78614 -6.9459,-8.39434 -12.1954,-9.35231 -1.83915,-0.38912 -3.72571,-0.55164 -5.60459,-0.49818 z m -238.56445,0.5293 c -5.94466,0 -11.88932,0 -17.83398,0 -10e-6,20.66536 -10e-6,41.33072 0,61.99609 6.51692,0 13.03385,0 19.55078,0 0,-1.54753 0,-3.09505 0,-4.64258 0.70177,1.54755 1.40228,3.09567 2.10546,4.64258 7.08464,0 14.16928,0 21.25391,0 -0.36328,-0.80339 -0.72656,-1.60677 -1.08984,-2.41016 4.42146,2.88162 9.96568,3.34972 15.08492,2.6921 3.56075,-0.44539 7.00894,-1.896 9.75687,-4.21358 0,1.31055 0,2.62109 0,3.93164 13.56901,0 27.13803,0 40.70704,0 0,-1.44662 0,-2.89323 0,-4.33984 3.45803,3.33606 8.32062,4.84183 13.05507,4.86808 3.90659,0.0729 7.93149,-0.58424 11.30564,-2.65562 4.81242,-2.80315 7.82847,-8.06646 8.54919,-13.51165 0.50489,-4.1168 0.20597,-8.27662 0.27756,-12.41249 -0.22325,-0.77343 0.19045,-0.91098 0.8805,-0.79028 0.89405,-0.28245 0.76531,0.45788 0.73477,1.1 0.0226,4.23536 -0.1313,8.48402 0.2168,12.7086 0.61706,5.10231 3.06868,10.24889 7.50586,13.07422 4.82775,3.06379 11.1804,3.21403 16.36403,0.97427 2.825,-1.30046 5.08734,-3.62046 6.64183,-6.28482 2.47373,3.72233 6.45024,6.34737 10.81445,7.26758 3.65395,0.77025 7.48039,0.70941 11.13019,-0.0478 5.1373,-1.15926 9.8884,-4.54091 12.08577,-9.40755 1.2293,-2.58384 1.55719,-5.47487 1.58755,-8.30336 0.12685,-3.0925 0.0412,-6.19088 0.0778,-9.28582 -0.009,-4.29986 -0.68359,-8.7587 -3.05404,-12.43615 -2.68679,-4.33873 -7.3121,-7.48517 -12.4112,-8.09707 -5.39002,-0.84143 -11.28571,-0.19994 -15.84248,2.99874 -1.87654,1.32497 -3.4615,3.0459 -4.68691,4.98525 0,-2.5918 0,-5.1836 0,-7.77539 -3.60482,0 -7.20964,0 -10.81446,0 0,-4.875 0,-9.75 0,-14.625 -6.53971,0 -13.07942,0 -19.61914,0 0,4.875 0,9.75 0,14.625 -1.79101,0 -3.58203,0 -5.37304,0 0,2.27343 0,4.54687 0,6.82031 -2.84717,-4.01769 -7.47884,-6.6648 -12.37669,-7.13056 -5.3632,-0.69833 -11.19919,0.0865 -15.59873,3.43414 -1.1956,0.90885 -2.2696,1.97613 -3.19646,3.15736 -1.48826,-3.39144 -4.65087,-6.04332 -8.34056,-6.63298 -2.5043,-0.46205 -5.17031,0.0111 -7.37624,1.24235 -2.60065,-1.50561 -5.80849,-1.83131 -8.67318,-0.94423 -1.57484,0.14027 -3.17536,0.008 -4.76119,0.0536 -3.26992,0 -6.53984,0 -9.80977,0 0,1.47005 0,2.9401 0,4.41015 -2.73337,-2.66376 -6.37936,-4.31798 -10.17111,-4.70093 -5.41414,-0.74407 -11.32722,0.0649 -15.76109,3.45863 -0.80448,0.61293 -1.54667,1.30555 -2.2299,2.0509 -0.16959,-5.37632 -1.91177,-10.93702 -5.86455,-14.74296 -2.65667,-2.68715 -6.24922,-4.30013 -9.96711,-4.82668 -1.59869,-0.24198 -3.21884,-0.31997 -4.83436,-0.27411 z m -355.97461,2 c 0,19.99869 0,39.99739 0,59.99609 6.53971,0 13.07943,0 19.61914,0 0,-7.57292 0,-15.14583 0,-22.71875 4.17188,0 8.34375,0 12.51563,0 0,-6.17708 0,-12.35417 0,-18.53125 -4.17188,0 -8.34375,0 -12.51563,0 0,-0.73893 0,-1.47787 0,-2.2168 5.40951,0 10.81901,0 16.22852,0 0,14.48893 0,28.97787 0,43.4668 6.53841,0 13.07682,0 19.61523,0 0.0362,-8.21479 -0.0505,-16.43523 0.043,-24.64648 1.41693,0.12418 2.84593,-0.035 4.2707,0.0228 1.90912,-4.4e-4 3.81823,-8.7e-4 5.72735,-10e-4 0.0655,4.0221 -0.29716,8.15009 0.92962,12.04673 1.34713,4.69843 4.55707,8.92935 9.00424,11.07279 4.22715,2.09738 9.12918,2.39262 13.74207,1.76444 5.17356,-0.74327 10.19405,-3.56671 12.89102,-8.14091 0.27728,-0.81203 0.55883,0.39514 0.86494,0.64853 2.51572,3.8133 6.6388,6.42725 11.10244,7.29665 3.55014,0.69135 7.25302,0.63302 10.78924,-0.10897 4.02562,-0.92865 7.82527,-3.13956 10.33463,-6.46012 0,2.16862 0,4.33724 0,6.50586 11.93555,0 23.87109,0 35.80664,0 0,-1.68685 0,-3.3737 0,-5.06055 2.77306,3.63331 7.36882,5.47311 11.85528,5.58101 2.11947,0.0677 4.26153,-0.17533 6.27753,-0.85054 1.60173,0.61517 3.34635,0.2145 5.01446,0.33008 15.32135,0 30.6427,0 45.96406,0 0,-1.91927 0,-3.83854 0,-5.75781 2.83986,3.38222 6.98766,5.63785 11.39453,6.0664 5.02924,0.63371 10.44143,-0.0144 14.74609,-2.84961 2.40594,-1.62453 4.37679,-3.86682 5.73633,-6.42773 1.98559,3.85539 5.4566,6.91171 9.56663,8.31757 4.03942,1.4075 8.45403,1.45754 12.63919,0.75777 5.20603,-0.97453 10.12482,-4.17038 12.53654,-8.97214 1.46415,-2.75725 1.87202,-5.92249 1.87847,-9.00458 0.13138,-3.29643 0.0576,-6.59878 0.0628,-9.89745 -0.0484,-4.29031 -0.9094,-8.72219 -3.41625,-12.28824 -2.73095,-4.08696 -7.23651,-6.96759 -12.13844,-7.54184 -5.42865,-0.82537 -11.36583,-0.13917 -15.91211,3.14258 -2.16914,1.58862 -3.94797,3.69049 -5.21094,6.06055 -2.23121,-4.3378 -6.3738,-7.60896 -11.10993,-8.77583 -3.78309,-0.96174 -7.81003,-0.97393 -11.61273,-0.11284 -4.7031,1.14387 -8.81418,4.34246 -11.15227,8.5708 -0.22636,-0.0634 -0.40874,-0.88564 -0.65442,-1.19613 -1.91014,-3.80586 -5.53404,-6.70216 -9.70679,-7.60997 -2.87147,-0.68051 -5.91947,-0.45186 -8.71112,0.46967 -1.55531,-0.60036 -3.24955,-0.2074 -4.86954,-0.32226 -4.01679,0 -8.03359,0 -12.05039,0 0,1.90234 0,3.80468 0,5.70703 -3.18841,-3.85361 -8.13568,-5.96655 -13.08049,-6.17005 -4.94693,-0.39754 -10.16042,0.48317 -14.28279,3.38098 -3.97242,2.68499 -6.36802,7.31339 -6.7337,12.04623 -0.0466,1.35316 -0.19195,2.72902 0.0618,4.06706 0.27872,1.20165 0.85674,2.30247 1.30859,3.44336 0.87837,-0.19163 0.009,0.61621 -0.0918,1.03363 -0.82834,1.66871 -1.35996,3.48266 -1.58199,5.3316 -1.44791,0 -2.89583,0 -4.34375,0 0,-14.48828 0,-28.97656 0,-43.46484 -9.07942,0 -18.15885,0 -27.23828,0 0,6.17643 0,12.35286 0,18.52929 2.53971,0 5.07943,0 7.61914,0 0,8.31185 0,16.6237 0,24.93555 -1.72526,0 -3.45052,0 -5.17578,0 0.07,-2.86573 0.0118,-5.73354 0.0407,-8.59992 -0.003,-4.41093 -0.75724,-8.99261 -3.27974,-12.70777 -2.72676,-4.19396 -7.30001,-7.17534 -12.29219,-7.75872 -5.39164,-0.81656 -11.28433,-0.15452 -15.81471,3.08352 -2.14478,1.53273 -3.90467,3.58195 -5.17748,5.88523 -2.46223,-4.50402 -6.92989,-7.93612 -12.02926,-8.79966 -5.25925,-0.983 -11.00756,-0.59465 -15.69011,2.18147 -1.9767,1.14189 -3.66776,2.81123 -5.01891,4.59085 -1.63958,-3.30846 -4.66997,-5.95403 -8.29635,-6.81319 -2.68763,-0.69561 -5.58921,-0.56483 -8.19779,0.38936 -1.5006,-0.54596 -3.07826,-0.18578 -4.63242,-0.29101 -4.05221,0 -8.10443,0 -12.15664,0 0,-4.875 0,-9.75 0,-14.625 -12.00391,0 -24.00781,0 -36.01172,0 0,0.66666 0,1.33333 0,2 z m 916.33395,16.52929 c 0,0.73893 0,1.47787 0,2.2168 -4.6386,0 -9.2773,0 -13.916,0 0,-0.73893 0,-1.47787 0,-2.2168 4.6387,0 9.2774,0 13.916,0 z m -304.87887,6.32617 c -0.74037,1.6978 -1.26812,3.49607 -1.50195,5.33594 -1.64958,-2.08492 -3.65139,-3.8869 -5.87891,-5.33594 2.46029,0 4.92057,0 7.38086,0 z m 494.03127,7.6836 c -0.5797,0.14581 -0.7665,-0.7239 -0.9661,-1.12708 -0.1108,-0.45331 0.093,-1.76412 0.3034,-0.64304 0.2209,0.59004 0.4418,1.18008 0.6627,1.77012 z m -986.32815,0 c -0.49419,0.16936 -0.74974,-0.61142 -0.92086,-0.96344 -0.16747,-0.29326 0.0184,-1.84871 0.19005,-0.98814 0.2436,0.65053 0.48721,1.30105 0.73081,1.95158 z m 170.05664,0 c -0.49419,0.16936 -0.74974,-0.61142 -0.92085,-0.96344 -0.16748,-0.29326 0.0184,-1.84871 0.19004,-0.98814 0.2436,0.65053 0.48721,1.30105 0.73081,1.95158 z m 544.18164,0 c -0.49419,0.16936 -0.74974,-0.61142 -0.92085,-0.96344 -0.16748,-0.29326 0.0184,-1.84871 0.19004,-0.98814 0.2436,0.65053 0.48721,1.30105 0.73081,1.95158 z m -748.25,0 c -0.49288,0.0829 -0.93891,-0.68998 -0.89026,-1.15575 -0.0549,-0.63304 -0.0412,-1.62893 0.27253,-0.49342 0.20591,0.54972 0.41182,1.09945 0.61773,1.64917 z m 306.10157,0 c -0.57505,0.14296 -0.77428,-0.7222 -0.99223,-1.11816 0.0309,-0.47017 0.11361,-1.68301 0.35714,-0.57588 0.2117,0.56468 0.42339,1.12936 0.63509,1.69404 z m 136.04492,0 c -0.45224,0.16523 -0.73238,-0.56003 -0.90438,-0.86336 -0.0803,-0.35586 -0.15109,-1.84919 0.21844,-0.96906 0.22865,0.61081 0.45729,1.22161 0.68594,1.83242 z m 544.18168,0 c -0.4523,0.16523 -0.7324,-0.56003 -0.9044,-0.86336 -0.08,-0.35586 -0.1511,-1.84919 0.2184,-0.96906 0.2287,0.61081 0.4573,1.22161 0.686,1.83242 z m -563.78324,0.61523 c -0.0486,1.32628 -0.0392,2.65357 -0.041,3.98047 -2.57418,0.0142 -5.14844,0.005 -7.72266,0.006 0,-1.32878 0,-2.65755 0,-3.98633 2.58789,0 5.17579,0 7.76368,0 z m 204.11718,0 c 0.22006,1.33073 0.44011,2.66146 0.66016,3.99219 -2.82302,-0.009 -5.64858,-0.005 -8.47266,-0.006 0,-1.32878 0,-2.65755 0,-3.98633 2.60417,0 5.20834,0 7.8125,0 z m 276.58986,0 c 1.8724,0 3.7448,0 5.6172,0 0,3.43685 0,6.8737 0,10.31055 -1.8972,0 -3.7943,0 -5.6914,0 0,-3.43685 0,-6.8737 0,-10.31055 z m -616.78517,5.41797 c 0.007,0.84505 0.01,1.6901 0.004,2.53516 -0.48308,-1.07032 -0.96615,-2.14063 -1.44922,-3.21094 0.50827,-0.45554 0.9881,-0.94378 1.43359,-1.46094 0.004,0.71224 0.008,1.42448 0.0117,2.13672 z m 542.81637,0.70508 c 0.6348,0 1.2696,0 1.9043,0 0,1.39583 0,2.79167 0,4.1875 -4.6386,0 -9.2773,0 -13.916,0 0,-1.39583 0,-2.79167 0,-4.1875 4.0039,0 8.0078,0 12.0117,0 z m -319.29684,3.79687 c 0.13311,0.54491 -0.0399,1.3047 -0.0488,0.32227 0.0147,-0.1145 -0.0311,-0.8135 0.0488,-0.32227 z m -408.35351,1.42383 c -0.0722,1.12762 -0.6455,-0.42423 -0.0509,-0.0574 z m 578.3457,0.20313 c 0.42357,1.02186 -0.16218,0.25444 -0.47266,-0.20703 0.12234,-0.42604 0.30576,0.11192 0.47266,0.20703 z" /><path
         d="m 122.53164,621.88074 v -49.99669 h 24.01202 v 6.53018 h -16.39347 v 14.21675 h 12.51617 v 6.53018 h -12.51617 v 22.71958 z m 35.84797,0 v -35.37181 h 7.61854 v 6.66623 q 0.40813,-1.42848 1.08836,-2.72091 0.74825,-1.29243 1.70057,-2.31277 1.02034,-1.08836 2.38079,-1.63255 1.42848,-0.54418 2.85696,-0.54418 1.29243,0 2.51684,0.40814 1.29243,0.40814 2.24474,1.29243 0.95232,0.8843 1.56453,2.04068 0.6122,1.15639 0.95231,2.44882 0.34012,1.22441 0.40814,2.51684 0.13605,1.29243 0.13605,2.58486 h -7.61855 q 0,-0.81627 -0.13604,-1.63254 -0.068,-0.81628 -0.40814,-1.4965 -0.34011,-0.74825 -1.08836,-1.15639 -0.68023,-0.47616 -1.4965,-0.47616 -1.08836,0 -2.04068,0.68023 -0.8843,0.6122 -1.42848,1.56452 -0.54418,0.8843 -0.88429,1.97266 -0.27209,1.02034 -0.47616,2.1087 -0.13605,1.08837 -0.20407,2.17673 -0.068,1.02034 -0.068,2.1087 v 18.77427 z m 43.19441,0.54418 q -1.90464,0 -3.74125,-0.34011 -1.83661,-0.34012 -3.46916,-1.22441 -1.63254,-0.8843 -2.92497,-2.24475 -1.22441,-1.42848 -2.04068,-3.12905 -0.74825,-1.70056 -1.08837,-3.53718 -0.27209,-1.83661 -0.27209,-3.67322 v -8.16273 q 0,-1.83661 0.27209,-3.67322 0.34012,-1.90464 1.08837,-3.53718 0.81627,-1.70057 2.04068,-3.06102 1.29243,-1.42848 2.92497,-2.31277 1.63255,-0.8843 3.46916,-1.22441 1.90464,-0.34012 3.74125,-0.34012 1.83661,0 3.67322,0.34012 1.90464,0.34011 3.53718,1.22441 1.63255,0.88429 2.85696,2.31277 1.29243,1.36045 2.04068,3.06102 0.81627,1.63254 1.08836,3.53718 0.34012,1.83661 0.34012,3.67322 v 7.34646 h -19.52252 v 0.81627 q 0,1.36045 0.27209,2.72091 0.27209,1.36045 1.02034,2.51684 0.74825,1.15638 2.04068,1.76859 1.29243,0.6122 2.65289,0.6122 1.02034,0 2.04068,-0.20407 1.02034,-0.20407 1.90463,-0.74825 0.8843,-0.6122 1.36046,-1.56452 0.47616,-0.95232 0.54418,-1.97266 h 7.55052 q 0,1.63255 -0.47616,3.19707 -0.47616,1.56452 -1.42848,2.92497 -0.95231,1.36046 -2.31277,2.31278 -1.29243,0.95231 -2.85695,1.56452 -1.4965,0.6122 -3.12904,0.81627 -1.56453,0.20407 -3.19707,0.20407 z m -5.986,-21.49517 h 11.972 v -0.81628 q 0,-1.36045 -0.27209,-2.7209 -0.2721,-1.36046 -1.08837,-2.51684 -0.74825,-1.15639 -2.04068,-1.76859 -1.22441,-0.61221 -2.58486,-0.61221 -1.36046,0 -2.65289,0.61221 -1.22441,0.6122 -2.04068,1.76859 -0.74825,1.15638 -1.02034,2.51684 -0.27209,1.36045 -0.27209,2.7209 z m 39.99734,21.49517 q -1.90463,0 -3.74124,-0.34011 -1.83662,-0.34012 -3.46916,-1.22441 -1.63255,-0.8843 -2.92498,-2.24475 -1.22441,-1.42848 -2.04068,-3.12905 -0.74825,-1.70056 -1.08836,-3.53718 -0.27209,-1.83661 -0.27209,-3.67322 v -8.16273 q 0,-1.83661 0.27209,-3.67322 0.34011,-1.90464 1.08836,-3.53718 0.81627,-1.70057 2.04068,-3.06102 1.29243,-1.42848 2.92498,-2.31277 1.63254,-0.8843 3.46916,-1.22441 1.90463,-0.34012 3.74124,-0.34012 1.83662,0 3.67323,0.34012 1.90463,0.34011 3.53718,1.22441 1.63254,0.88429 2.85695,2.31277 1.29243,1.36045 2.04068,3.06102 0.81628,1.63254 1.08837,3.53718 0.34011,1.83661 0.34011,3.67322 v 7.34646 h -19.52251 v 0.81627 q 0,1.36045 0.27209,2.72091 0.27209,1.36045 1.02034,2.51684 0.74825,1.15638 2.04068,1.76859 1.29243,0.6122 2.65288,0.6122 1.02034,0 2.04068,-0.20407 1.02034,-0.20407 1.90464,-0.74825 0.88429,-0.6122 1.36045,-1.56452 0.47616,-0.95232 0.54419,-1.97266 h 7.55051 q 0,1.63255 -0.47615,3.19707 -0.47616,1.56452 -1.42848,2.92497 -0.95232,1.36046 -2.31277,2.31278 -1.29243,0.95231 -2.85696,1.56452 -1.4965,0.6122 -3.12904,0.81627 -1.56452,0.20407 -3.19707,0.20407 z m -5.98599,-21.49517 h 11.97199 v -0.81628 q 0,-1.36045 -0.27209,-2.7209 -0.27209,-1.36046 -1.08836,-2.51684 -0.74825,-1.15639 -2.04068,-1.76859 -1.22441,-0.61221 -2.58487,-0.61221 -1.36045,0 -2.65288,0.61221 -1.22441,0.6122 -2.04068,1.76859 -0.74825,1.15638 -1.02034,2.51684 -0.27209,1.36045 -0.27209,2.7209 z m 28.09337,20.95099 v -6.53018 h 8.57086 v -36.93633 h -7.61854 v -6.53018 h 15.23709 v 43.46651 h 7.61854 v 6.53018 z m 42.51419,0.54418 q -2.1087,0 -4.14938,-0.61221 -1.97266,-0.68022 -3.40114,-2.17672 -1.36045,-1.4965 -1.97265,-3.46916 -0.61221,-2.04068 -0.61221,-4.08136 0,-1.83661 0.40814,-3.6052 0.47616,-1.76859 1.56452,-3.19707 1.08836,-1.42848 2.58486,-2.3808 1.56452,-1.02034 3.19707,-1.56452 1.70057,-0.6122 3.46916,-0.81627 1.83661,-0.20407 3.6052,-0.20407 h 4.14938 v -2.31277 q 0,-1.15639 -0.34011,-2.17673 -0.34011,-1.08836 -1.15639,-1.83661 -0.74824,-0.81627 -1.83661,-1.15638 -1.08836,-0.34012 -2.17672,-0.34012 -1.02034,0 -1.97266,0.20407 -0.95232,0.20407 -1.76859,0.81627 -0.81627,0.54418 -1.29243,1.4965 -0.47616,0.8843 -0.47616,1.83661 v 0.13605 h -7.55052 v -0.34011 q 0,-1.56453 0.47616,-3.06102 0.47616,-1.56453 1.36045,-2.85696 0.8843,-1.36045 2.17673,-2.24475 1.36045,-0.95231 2.78893,-1.4965 1.4965,-0.6122 3.06102,-0.81627 1.63254,-0.20407 3.19707,-0.20407 1.70056,0 3.33311,0.27209 1.70057,0.20407 3.19706,0.8843 1.56453,0.68023 2.85696,1.83661 1.29243,1.08836 2.1087,2.58486 0.8843,1.42848 1.22441,3.12905 0.34011,1.63254 0.34011,3.33311 v 23.87597 h -7.55052 v -5.03368 q -0.6122,1.22441 -1.4965,2.38079 -0.88429,1.08837 -2.1087,1.83661 -1.15638,0.74825 -2.51684,1.02035 -1.36045,0.34011 -2.72091,0.34011 z m 3.12905,-6.53018 q 1.15638,0 2.31277,-0.40814 1.15639,-0.40813 1.97266,-1.29243 0.81627,-0.95232 1.08836,-2.1087 0.34011,-1.22441 0.34011,-2.44882 v -2.78893 h -4.14938 q -0.81627,0 -1.63255,0.068 -0.74824,0.068 -1.56452,0.27209 -0.74825,0.20407 -1.4965,0.54419 -0.74825,0.27209 -1.36045,0.81627 -0.6122,0.47616 -0.95232,1.22441 -0.27209,0.74825 -0.27209,1.56452 0,1.02034 0.47616,1.97266 0.47616,0.95232 1.29243,1.56452 0.8843,0.6122 1.90464,0.81627 1.02034,0.20407 2.04068,0.20407 z m 21.29109,5.986 v -35.37181 h 7.55052 v 5.57787 q 0.54418,-1.36046 1.36045,-2.51684 0.81628,-1.15639 1.90464,-1.97266 1.15639,-0.8843 2.51684,-1.22441 1.36045,-0.40814 2.78893,-0.40814 1.63254,0 3.19707,0.54418 1.56452,0.54419 2.7209,1.63255 1.22441,1.08836 1.97266,2.58486 0.74825,1.42848 1.15639,2.993 0.47616,1.56452 0.6122,3.19707 0.20407,1.56452 0.20407,3.19706 v 21.76727 h -7.55052 v -21.76727 q 0,-0.88429 -0.13604,-1.76859 -0.068,-0.88429 -0.34012,-1.70056 -0.20407,-0.8843 -0.68022,-1.63255 -0.40814,-0.74825 -1.08837,-1.36045 -0.6122,-0.61221 -1.4965,-0.8843 -0.81627,-0.27209 -1.70056,-0.27209 -0.8843,0 -1.76859,0.27209 -0.81628,0.27209 -1.4965,0.8843 -0.61221,0.6122 -1.08837,1.36045 -0.40813,0.74825 -0.68022,1.63255 -0.20407,0.81627 -0.34012,1.70056 -0.068,0.8843 -0.068,1.76859 v 21.76727 z m 46.79962,0.54418 q -1.83661,0 -3.67323,-0.34011 -1.83661,-0.34012 -3.46915,-1.22441 -1.56453,-0.95232 -2.85696,-2.31277 -1.2244,-1.42848 -2.04068,-3.06103 -0.74825,-1.70056 -1.02034,-3.53718 -0.27209,-1.83661 -0.27209,-3.67322 v -8.16273 q 0,-1.83661 0.27209,-3.67322 0.27209,-1.83661 1.02034,-3.46916 0.81628,-1.70057 2.04068,-3.06102 1.29243,-1.42848 2.85696,-2.31277 1.63254,-0.95232 3.46915,-1.29243 1.83662,-0.34012 3.67323,-0.34012 1.76859,0 3.46916,0.34012 1.76859,0.27209 3.33311,1.08836 1.56452,0.74825 2.78893,1.97266 1.29243,1.22441 2.1087,2.78893 0.81628,1.56452 1.22441,3.26509 0.40814,1.70057 0.40814,3.46916 v 0.47615 h -7.55052 v -0.20406 q 0,-1.29243 -0.34011,-2.51684 -0.34012,-1.22441 -1.08837,-2.17673 -0.74825,-0.95232 -1.97266,-1.42848 -1.15638,-0.54418 -2.38079,-0.54418 -1.36045,0 -2.58486,0.68023 -1.22441,0.6122 -1.97266,1.76859 -0.68023,1.15638 -0.95232,2.51684 -0.27209,1.29243 -0.27209,2.65288 v 8.16273 q 0,1.36045 0.27209,2.72091 0.27209,1.29243 0.95232,2.44881 0.74825,1.15639 1.97266,1.83662 1.22441,0.6122 2.58486,0.6122 1.22441,0 2.38079,-0.47616 1.22441,-0.54418 1.97266,-1.4965 0.74825,-0.95232 1.08837,-2.17672 0.34011,-1.22441 0.34011,-2.51684 v -0.20407 h 7.55052 v 0.47616 q 0,1.76859 -0.40814,3.46915 -0.40813,1.70057 -1.22441,3.26509 -0.81627,1.56453 -2.1087,2.78893 -1.22441,1.22441 -2.78893,2.04068 -1.56452,0.74825 -3.33311,1.02035 -1.70057,0.34011 -3.46916,0.34011 z m 34.21542,0 q -1.90463,0 -3.74125,-0.34011 -1.83661,-0.34012 -3.46916,-1.22441 -1.63254,-0.8843 -2.92497,-2.24475 -1.22441,-1.42848 -2.04068,-3.12905 -0.74825,-1.70056 -1.08837,-3.53718 -0.27209,-1.83661 -0.27209,-3.67322 v -8.16273 q 0,-1.83661 0.27209,-3.67322 0.34012,-1.90464 1.08837,-3.53718 0.81627,-1.70057 2.04068,-3.06102 1.29243,-1.42848 2.92497,-2.31277 1.63255,-0.8843 3.46916,-1.22441 1.90464,-0.34012 3.74125,-0.34012 1.83661,0 3.67323,0.34012 1.90463,0.34011 3.53718,1.22441 1.63254,0.88429 2.85695,2.31277 1.29243,1.36045 2.04068,3.06102 0.81627,1.63254 1.08836,3.53718 0.34012,1.83661 0.34012,3.67322 v 7.34646 h -19.52252 v 0.81627 q 0,1.36045 0.27209,2.72091 0.2721,1.36045 1.02034,2.51684 0.74825,1.15638 2.04069,1.76859 1.29243,0.6122 2.65288,0.6122 1.02034,0 2.04068,-0.20407 1.02034,-0.20407 1.90464,-0.74825 0.88429,-0.6122 1.36045,-1.56452 0.47616,-0.95232 0.54418,-1.97266 h 7.55052 q 0,1.63255 -0.47616,3.19707 -0.47616,1.56452 -1.42847,2.92497 -0.95232,1.36046 -2.31278,2.31278 -1.29243,0.95231 -2.85695,1.56452 -1.4965,0.6122 -3.12904,0.81627 -1.56452,0.20407 -3.19707,0.20407 z m -5.986,-21.49517 h 11.972 v -0.81628 q 0,-1.36045 -0.27209,-2.7209 -0.27209,-1.36046 -1.08837,-2.51684 -0.74825,-1.15639 -2.04068,-1.76859 -1.22441,-0.61221 -2.58486,-0.61221 -1.36045,0 -2.65288,0.61221 -1.22441,0.6122 -2.04069,1.76859 -0.74824,1.15638 -1.02034,2.51684 -0.27209,1.36045 -0.27209,2.7209 z m 80.53888,20.95099 -8.84295,-19.52252 H 468.223 v 19.52252 h -7.55052 v -49.99669 h 13.33245 q 1.90463,0 3.74125,0.47616 1.90463,0.40814 3.53718,1.42848 1.63254,1.02034 2.78893,2.58486 1.22441,1.4965 1.90463,3.26509 0.68023,1.76859 0.95232,3.67323 0.27209,1.90463 0.27209,3.80927 0,2.24475 -0.40813,4.42147 -0.34012,2.17673 -1.36046,4.14939 -0.95232,1.97266 -2.65288,3.53718 -1.63255,1.56452 -3.67323,2.31277 l 9.18307,20.33879 z M 468.223,595.82804 h 5.78193 q 0.95232,0 1.83661,-0.34011 0.95232,-0.40814 1.63255,-1.08836 0.68022,-0.68023 1.08836,-1.56452 0.40814,-0.95232 0.6122,-1.83662 0.2721,-0.95232 0.34012,-1.90463 0.13604,-1.02034 0.13604,-1.97266 0,-0.95232 -0.13604,-1.90464 -0.068,-1.02034 -0.34012,-1.90463 -0.20406,-0.95232 -0.6122,-1.83661 -0.40814,-0.95232 -1.08836,-1.63255 -0.68023,-0.68023 -1.63255,-1.02034 -0.88429,-0.40814 -1.83661,-0.40814 H 468.223 Z m 39.45317,26.59688 q -1.90464,0 -3.74125,-0.34011 -1.83661,-0.34012 -3.46916,-1.22441 -1.63254,-0.8843 -2.92497,-2.24475 -1.22441,-1.42848 -2.04068,-3.12905 -0.74825,-1.70056 -1.08837,-3.53718 -0.27209,-1.83661 -0.27209,-3.67322 v -8.16273 q 0,-1.83661 0.27209,-3.67322 0.34012,-1.90464 1.08837,-3.53718 0.81627,-1.70057 2.04068,-3.06102 1.29243,-1.42848 2.92497,-2.31277 1.63255,-0.8843 3.46916,-1.22441 1.90464,-0.34012 3.74125,-0.34012 1.83661,0 3.67322,0.34012 1.90464,0.34011 3.53718,1.22441 1.63255,0.88429 2.85696,2.31277 1.29243,1.36045 2.04068,3.06102 0.81627,1.63254 1.08836,3.53718 0.34012,1.83661 0.34012,3.67322 v 7.34646 h -19.52252 v 0.81627 q 0,1.36045 0.27209,2.72091 0.27209,1.36045 1.02034,2.51684 0.74825,1.15638 2.04068,1.76859 1.29243,0.6122 2.65289,0.6122 1.02034,0 2.04068,-0.20407 1.02034,-0.20407 1.90463,-0.74825 0.8843,-0.6122 1.36046,-1.56452 0.47616,-0.95232 0.54418,-1.97266 h 7.55052 q 0,1.63255 -0.47616,3.19707 -0.47616,1.56452 -1.42848,2.92497 -0.95231,1.36046 -2.31277,2.31278 -1.29243,0.95231 -2.85695,1.56452 -1.4965,0.6122 -3.12904,0.81627 -1.56453,0.20407 -3.19707,0.20407 z m -5.986,-21.49517 h 11.972 v -0.81628 q 0,-1.36045 -0.27209,-2.7209 -0.2721,-1.36046 -1.08837,-2.51684 -0.74825,-1.15639 -2.04068,-1.76859 -1.22441,-0.61221 -2.58486,-0.61221 -1.36046,0 -2.65289,0.61221 -1.22441,0.6122 -2.04068,1.76859 -0.74825,1.15638 -1.02034,2.51684 -0.27209,1.36045 -0.27209,2.7209 z m 25.64453,20.95099 v -35.37181 h 7.00634 v 2.993 q 0.34011,-0.74825 0.74825,-1.36045 0.47616,-0.68023 1.08836,-1.15639 0.61221,-0.54418 1.36046,-0.74825 0.81627,-0.27209 1.63254,-0.27209 1.02034,0 1.97266,0.40814 0.95232,0.40814 1.63254,1.15639 0.74825,0.68022 1.15639,1.63254 0.47616,0.88429 0.74825,1.90464 0.20407,-0.95232 0.6122,-1.90464 0.47616,-0.95232 1.15639,-1.63254 0.68023,-0.74825 1.63254,-1.15639 0.95232,-0.40814 1.97266,-0.40814 1.02034,0 2.04068,0.47616 1.02034,0.40814 1.70057,1.22441 0.74825,0.81627 1.15639,1.83661 0.40813,0.95232 0.6122,2.04068 0.27209,1.02034 0.34011,2.10871 0.13605,1.02034 0.13605,2.1087 v 26.12072 h -7.00634 v -26.12072 q 0,-0.6122 -0.068,-1.15638 -0.068,-0.61221 -0.27209,-1.15639 -0.13605,-0.54418 -0.61221,-1.02034 -0.40813,-0.47616 -0.95231,-0.47616 -0.61221,0 -1.02034,0.47616 -0.40814,0.47616 -0.61221,1.02034 -0.20407,0.54418 -0.27209,1.15639 -0.068,0.54418 -0.068,1.15638 v 26.12072 h -6.93832 v -26.12072 q 0,-0.6122 -0.068,-1.15638 -0.068,-0.61221 -0.27209,-1.15639 -0.20407,-0.54418 -0.6122,-1.02034 -0.40814,-0.47616 -1.02035,-0.47616 -0.54418,0 -1.02034,0.47616 -0.40813,0.47616 -0.6122,1.02034 -0.13605,0.54418 -0.20407,1.15639 -0.068,0.54418 -0.068,1.15638 v 26.12072 z m 48.36414,0.54418 q -1.83661,0 -3.74125,-0.34011 -1.83661,-0.34012 -3.46915,-1.22441 -1.63255,-0.8843 -2.92498,-2.24475 -1.22441,-1.42848 -2.04068,-3.06102 -0.74825,-1.70057 -1.08836,-3.53718 -0.27209,-1.90464 -0.27209,-3.74125 v -8.16273 q 0,-1.83661 0.27209,-3.67322 0.34011,-1.90464 1.08836,-3.53718 0.81627,-1.70057 2.04068,-3.06102 1.29243,-1.42848 2.92498,-2.31277 1.63254,-0.8843 3.46915,-1.22441 1.90464,-0.34012 3.74125,-0.34012 1.83662,0 3.67323,0.34012 1.90463,0.34011 3.53718,1.22441 1.63254,0.88429 2.85695,2.31277 1.29243,1.36045 2.04068,3.06102 0.81628,1.63254 1.08837,3.53718 0.34011,1.83661 0.34011,3.67322 v 8.16273 q 0,1.83661 -0.34011,3.74125 -0.27209,1.83661 -1.08837,3.53718 -0.74825,1.63254 -2.04068,3.06102 -1.22441,1.36045 -2.85695,2.24475 -1.63255,0.88429 -3.53718,1.22441 -1.83661,0.34011 -3.67323,0.34011 z m 0,-6.53018 q 1.36046,0 2.58487,-0.6122 1.29243,-0.61221 2.04068,-1.76859 0.81627,-1.15639 1.08836,-2.51684 0.27209,-1.36046 0.27209,-2.72091 v -8.16273 q 0,-1.36045 -0.27209,-2.7209 -0.27209,-1.36046 -1.08836,-2.51684 -0.74825,-1.15639 -2.04068,-1.76859 -1.22441,-0.61221 -2.58487,-0.61221 -1.36045,0 -2.65288,0.61221 -1.22441,0.6122 -2.04068,1.76859 -0.74825,1.15638 -1.02034,2.51684 -0.27209,1.36045 -0.27209,2.7209 v 8.16273 q 0,1.36045 0.27209,2.72091 0.27209,1.36045 1.02034,2.51684 0.81627,1.15638 2.04068,1.76859 1.29243,0.6122 2.65288,0.6122 z m 37.88865,6.53018 q -1.56452,0 -3.19707,-0.40814 -1.56452,-0.40813 -2.92497,-1.36045 -1.29243,-0.95232 -2.24475,-2.31277 -0.8843,-1.36046 -1.42848,-2.85696 -0.54418,-1.56452 -0.74825,-3.19706 -0.20407,-1.63255 -0.20407,-3.26509 v -15.98534 h -5.37379 v -6.53018 h 5.37379 v -14.62488 h 7.61855 v 14.62488 h 10.8156 v 6.53018 h -10.8156 v 15.98534 q 0,0.74825 0,1.42847 0.068,0.68023 0.13604,1.36046 0.13605,0.68023 0.34011,1.36045 0.20407,0.68023 0.47616,1.29243 0.34012,0.54418 0.8843,1.02034 0.6122,0.40814 1.29243,0.40814 0.68023,0 1.22441,-0.40814 0.6122,-0.40813 0.95232,-0.95231 0.34011,-0.61221 0.47615,-1.22441 0.20407,-0.68023 0.34012,-1.29243 0.13604,-0.68023 0.13604,-1.36046 0.068,-0.68022 0.068,-1.29243 v -0.34011 h 7.61854 v 0.6122 q 0,1.56452 -0.27209,3.12905 -0.27209,1.56452 -0.8843,3.06102 -0.54418,1.42847 -1.4965,2.72091 -0.88429,1.29243 -2.17672,2.24474 -1.29243,0.8843 -2.85696,1.22441 -1.4965,0.40814 -3.12904,0.40814 z m 30.13406,0 q -1.90464,0 -3.74125,-0.34011 -1.83661,-0.34012 -3.46916,-1.22441 -1.63254,-0.8843 -2.92497,-2.24475 -1.22441,-1.42848 -2.04068,-3.12905 -0.74825,-1.70056 -1.08837,-3.53718 -0.27209,-1.83661 -0.27209,-3.67322 v -8.16273 q 0,-1.83661 0.27209,-3.67322 0.34012,-1.90464 1.08837,-3.53718 0.81627,-1.70057 2.04068,-3.06102 1.29243,-1.42848 2.92497,-2.31277 1.63255,-0.8843 3.46916,-1.22441 1.90464,-0.34012 3.74125,-0.34012 1.83661,0 3.67322,0.34012 1.90464,0.34011 3.53718,1.22441 1.63255,0.88429 2.85696,2.31277 1.29243,1.36045 2.04068,3.06102 0.81627,1.63254 1.08836,3.53718 0.34011,1.83661 0.34011,3.67322 v 7.34646 h -19.52251 v 0.81627 q 0,1.36045 0.27209,2.72091 0.27209,1.36045 1.02034,2.51684 0.74825,1.15638 2.04068,1.76859 1.29243,0.6122 2.65289,0.6122 1.02034,0 2.04068,-0.20407 1.02034,-0.20407 1.90463,-0.74825 0.8843,-0.6122 1.36046,-1.56452 0.47616,-0.95232 0.54418,-1.97266 h 7.55052 q 0,1.63255 -0.47616,3.19707 -0.47616,1.56452 -1.42848,2.92497 -0.95231,1.36046 -2.31277,2.31278 -1.29243,0.95231 -2.85695,1.56452 -1.4965,0.6122 -3.12905,0.81627 -1.56452,0.20407 -3.19706,0.20407 z m -5.986,-21.49517 h 11.972 v -0.81628 q 0,-1.36045 -0.2721,-2.7209 -0.27209,-1.36046 -1.08836,-2.51684 -0.74825,-1.15639 -2.04068,-1.76859 -1.22441,-0.61221 -2.58486,-0.61221 -1.36046,0 -2.65289,0.61221 -1.22441,0.6122 -2.04068,1.76859 -0.74825,1.15638 -1.02034,2.51684 -0.27209,1.36045 -0.27209,2.7209 z m 73.94068,21.49517 q -1.76859,0 -3.53718,-0.27209 -1.70057,-0.27209 -3.33311,-1.02034 -1.56452,-0.81627 -2.92498,-1.97266 -1.29243,-1.22441 -2.17672,-2.72091 -0.81628,-1.56452 -1.22441,-3.26509 -0.40814,-1.76859 -0.40814,-3.53718 v -0.6122 h 7.55052 v 0.27209 q 0,1.29243 0.34011,2.51684 0.40814,1.22441 1.22441,2.24475 0.81627,0.95231 1.97266,1.42847 1.22441,0.40814 2.51684,0.40814 1.22441,0 2.44882,-0.40814 1.22441,-0.47616 2.04068,-1.42847 0.81627,-0.95232 1.15638,-2.17673 0.40814,-1.22441 0.40814,-2.44882 0,-1.70056 -0.68023,-3.26509 -0.68022,-1.56452 -1.83661,-2.7209 -1.15639,-1.22441 -2.65288,-2.04068 -1.42848,-0.81628 -2.92498,-1.56453 -1.4965,-0.81627 -2.92498,-1.70056 -1.36045,-0.95232 -2.58486,-2.10871 -1.22441,-1.15638 -2.24475,-2.44881 -1.02034,-1.36046 -1.70057,-2.85696 -0.68022,-1.56452 -1.08836,-3.19706 -0.34011,-1.63255 -0.34011,-3.26509 0,-1.76859 0.34011,-3.46916 0.40814,-1.70057 1.15639,-3.19707 0.81627,-1.56452 2.04068,-2.78893 1.29243,-1.29243 2.78893,-2.04068 1.56452,-0.81627 3.26509,-1.08836 1.76859,-0.34012 3.46916,-0.34012 1.70056,0 3.40113,0.34012 1.76859,0.27209 3.26509,1.08836 1.56452,0.74825 2.78893,1.97266 1.22441,1.22441 2.04068,2.78893 0.81627,1.4965 1.15639,3.19707 0.40813,1.70056 0.40813,3.40113 v 0.6122 h -7.55052 v -0.27209 q 0,-1.2244 -0.34011,-2.38079 -0.27209,-1.22441 -1.02034,-2.17673 -0.68023,-1.02034 -1.83661,-1.4965 -1.08837,-0.54418 -2.31277,-0.54418 -1.22441,0 -2.3808,0.47616 -1.08836,0.47616 -1.83661,1.42848 -0.68023,0.95232 -1.02034,2.17672 -0.27209,1.15639 -0.27209,2.3808 0,1.63254 0.68022,3.19707 0.68023,1.56452 1.83662,2.78893 1.15638,1.2244 2.58486,2.04068 1.4965,0.81627 2.92498,1.63254 1.4965,0.74825 2.85695,1.70057 1.42848,0.88429 2.65288,2.04068 1.29244,1.08836 2.24475,2.44882 1.02034,1.36045 1.70057,2.85695 0.74825,1.4965 1.08836,3.12904 0.40814,1.63255 0.40814,3.33312 0,1.76859 -0.40814,3.53718 -0.40813,1.70056 -1.29243,3.26509 -0.81627,1.56452 -2.1087,2.78893 -1.29243,1.22441 -2.92498,1.97265 -1.56452,0.74825 -3.33311,1.02035 -1.76859,0.34011 -3.53718,0.34011 z m 34.07938,0 q -1.83662,0 -3.74125,-0.34011 -1.83662,-0.34012 -3.46916,-1.22441 -1.63254,-0.8843 -2.92498,-2.24475 -1.2244,-1.42848 -2.04068,-3.06102 -0.74825,-1.70057 -1.08836,-3.53718 -0.27209,-1.90464 -0.27209,-3.74125 v -8.16273 q 0,-1.83661 0.27209,-3.67322 0.34011,-1.90464 1.08836,-3.53718 0.81628,-1.70057 2.04068,-3.06102 1.29244,-1.42848 2.92498,-2.31277 1.63254,-0.8843 3.46916,-1.22441 1.90463,-0.34012 3.74125,-0.34012 1.83661,0 3.67322,0.34012 1.90464,0.34011 3.53718,1.22441 1.63255,0.88429 2.85695,2.31277 1.29244,1.36045 2.04069,3.06102 0.81627,1.63254 1.08836,3.53718 0.34011,1.83661 0.34011,3.67322 v 8.16273 q 0,1.83661 -0.34011,3.74125 -0.27209,1.83661 -1.08836,3.53718 -0.74825,1.63254 -2.04069,3.06102 -1.2244,1.36045 -2.85695,2.24475 -1.63254,0.88429 -3.53718,1.22441 -1.83661,0.34011 -3.67322,0.34011 z m 0,-6.53018 q 1.36045,0 2.58486,-0.6122 1.29243,-0.61221 2.04068,-1.76859 0.81627,-1.15639 1.08836,-2.51684 0.27209,-1.36046 0.27209,-2.72091 v -8.16273 q 0,-1.36045 -0.27209,-2.7209 -0.27209,-1.36046 -1.08836,-2.51684 -0.74825,-1.15639 -2.04068,-1.76859 -1.22441,-0.61221 -2.58486,-0.61221 -1.36046,0 -2.65289,0.61221 -1.22441,0.6122 -2.04068,1.76859 -0.74825,1.15638 -1.02034,2.51684 -0.27209,1.36045 -0.27209,2.7209 v 8.16273 q 0,1.36045 0.27209,2.72091 0.27209,1.36045 1.02034,2.51684 0.81627,1.15638 2.04068,1.76859 1.29243,0.6122 2.65289,0.6122 z m 28.22942,5.986 v -26.0527 h -7.21041 v -6.53017 h 7.21041 v -6.25809 q 0,-1.42848 0.20407,-2.85696 0.20407,-1.4965 0.74825,-2.85695 0.54418,-1.36045 1.42847,-2.51684 0.8843,-1.22441 2.10871,-1.97266 1.22441,-0.81627 2.65288,-1.15638 1.4965,-0.34012 2.92498,-0.34012 2.04068,0 4.01334,0.61221 1.97266,0.6122 3.33311,2.04068 1.42848,1.42847 2.1087,3.40113 0.68023,1.97266 0.68023,3.94532 v 0.20407 h -7.61854 v -0.068 q 0,-0.61221 -0.13605,-1.22441 -0.068,-0.61221 -0.40813,-1.15639 -0.27209,-0.54418 -0.81628,-0.88429 -0.47615,-0.34012 -1.15638,-0.34012 -0.74825,0 -1.29243,0.68023 -0.54418,0.6122 -0.81628,1.36045 -0.20406,0.74825 -0.34011,1.56453 -0.068,0.74824 -0.068,1.56452 v 6.25809 h 9.93131 v 6.53017 h -9.93131 v 26.0527 z m 43.67057,0.54418 q -1.56452,0 -3.19706,-0.40814 -1.56452,-0.40813 -2.92498,-1.36045 -1.29243,-0.95232 -2.24475,-2.31277 -0.88429,-1.36046 -1.42847,-2.85696 -0.54419,-1.56452 -0.74825,-3.19706 -0.20407,-1.63255 -0.20407,-3.26509 v -15.98534 h -5.37379 v -6.53018 h 5.37379 v -14.62488 h 7.61854 v 14.62488 h 10.81561 v 6.53018 h -10.81561 v 15.98534 q 0,0.74825 0,1.42847 0.068,0.68023 0.13605,1.36046 0.13604,0.68023 0.34011,1.36045 0.20407,0.68023 0.47616,1.29243 0.34011,0.54418 0.88429,1.02034 0.61221,0.40814 1.29243,0.40814 0.68023,0 1.22441,-0.40814 0.61221,-0.40813 0.95232,-0.95231 0.34011,-0.61221 0.47616,-1.22441 0.20407,-0.68023 0.34011,-1.29243 0.13605,-0.68023 0.13605,-1.36046 0.068,-0.68022 0.068,-1.29243 v -0.34011 h 7.61854 v 0.6122 q 0,1.56452 -0.27209,3.12905 -0.27209,1.56452 -0.88429,3.06102 -0.54418,1.42847 -1.4965,2.72091 -0.8843,1.29243 -2.17673,2.24474 -1.29243,0.8843 -2.85695,1.22441 -1.4965,0.40814 -3.12905,0.40814 z m 20.54286,-0.54418 -5.84995,-35.37181 h 7.61854 l 1.70057,28.02536 3.12904,-18.09404 h 5.986 l 3.12905,18.09404 1.70056,-28.02536 h 7.61855 l -5.84996,35.37181 h -6.05402 l -3.53718,-17.88997 -3.53718,17.88997 z m 40.20142,0.54418 q -2.1087,0 -4.14938,-0.61221 -1.97266,-0.68022 -3.40114,-2.17672 -1.36045,-1.4965 -1.97266,-3.46916 -0.6122,-2.04068 -0.6122,-4.08136 0,-1.83661 0.40814,-3.6052 0.47615,-1.76859 1.56452,-3.19707 1.08836,-1.42848 2.58486,-2.3808 1.56452,-1.02034 3.19707,-1.56452 1.70056,-0.6122 3.46915,-0.81627 1.83662,-0.20407 3.60521,-0.20407 h 4.14938 v -2.31277 q 0,-1.15639 -0.34011,-2.17673 -0.34012,-1.08836 -1.15639,-1.83661 -0.74825,-0.81627 -1.83661,-1.15638 -1.08836,-0.34012 -2.17673,-0.34012 -1.02034,0 -1.97266,0.20407 -0.95231,0.20407 -1.76859,0.81627 -0.81627,0.54418 -1.29243,1.4965 -0.47616,0.8843 -0.47616,1.83661 v 0.13605 h -7.55051 v -0.34011 q 0,-1.56453 0.47615,-3.06102 0.47616,-1.56453 1.36046,-2.85696 0.88429,-1.36045 2.17672,-2.24475 1.36046,-0.95231 2.78893,-1.4965 1.4965,-0.6122 3.06103,-0.81627 1.63254,-0.20407 3.19706,-0.20407 1.70057,0 3.33312,0.27209 1.70056,0.20407 3.19706,0.8843 1.56452,0.68023 2.85696,1.83661 1.29243,1.08836 2.1087,2.58486 0.88429,1.42848 1.22441,3.12905 0.34011,1.63254 0.34011,3.33311 v 23.87597 h -7.55052 v -5.03368 q -0.6122,1.22441 -1.4965,2.38079 -0.88429,1.08837 -2.1087,1.83661 -1.15639,0.74825 -2.51684,1.02035 -1.36046,0.34011 -2.72091,0.34011 z m 3.12905,-6.53018 q 1.15638,0 2.31277,-0.40814 1.15638,-0.40813 1.97266,-1.29243 0.81627,-0.95232 1.08836,-2.1087 0.34011,-1.22441 0.34011,-2.44882 v -2.78893 h -4.14938 q -0.81628,0 -1.63255,0.068 -0.74825,0.068 -1.56452,0.27209 -0.74825,0.20407 -1.4965,0.54419 -0.74825,0.27209 -1.36045,0.81627 -0.61221,0.47616 -0.95232,1.22441 -0.27209,0.74825 -0.27209,1.56452 0,1.02034 0.47616,1.97266 0.47616,0.95232 1.29243,1.56452 0.88429,0.6122 1.90463,0.81627 1.02034,0.20407 2.04069,0.20407 z m 25.10037,5.986 v -35.37181 h 7.61855 v 6.66623 q 0.40813,-1.42848 1.08836,-2.72091 0.74825,-1.29243 1.70057,-2.31277 1.02034,-1.08836 2.38079,-1.63255 1.42848,-0.54418 2.85695,-0.54418 1.29244,0 2.51684,0.40814 1.29244,0.40814 2.24475,1.29243 0.95232,0.8843 1.56453,2.04068 0.6122,1.15639 0.95231,2.44882 0.34012,1.22441 0.40814,2.51684 0.13604,1.29243 0.13604,2.58486 h -7.61854 q 0,-0.81627 -0.13604,-1.63254 -0.068,-0.81628 -0.40814,-1.4965 -0.34011,-0.74825 -1.08836,-1.15639 -0.68023,-0.47616 -1.4965,-0.47616 -1.08836,0 -2.04068,0.68023 -0.8843,0.6122 -1.42848,1.56452 -0.54418,0.8843 -0.88429,1.97266 -0.27209,1.02034 -0.47616,2.1087 -0.13605,1.08837 -0.20407,2.17673 -0.068,1.02034 -0.068,2.1087 v 18.77427 z m 43.19436,0.54418 q -1.90464,0 -3.74125,-0.34011 -1.83661,-0.34012 -3.46916,-1.22441 -1.63254,-0.8843 -2.92497,-2.24475 -1.22441,-1.42848 -2.04068,-3.12905 -0.74825,-1.70056 -1.08837,-3.53718 -0.27209,-1.83661 -0.27209,-3.67322 v -8.16273 q 0,-1.83661 0.27209,-3.67322 0.34012,-1.90464 1.08837,-3.53718 0.81627,-1.70057 2.04068,-3.06102 1.29243,-1.42848 2.92497,-2.31277 1.63255,-0.8843 3.46916,-1.22441 1.90464,-0.34012 3.74125,-0.34012 1.83661,0 3.67323,0.34012 1.90463,0.34011 3.53718,1.22441 1.63254,0.88429 2.85695,2.31277 1.29243,1.36045 2.04068,3.06102 0.81627,1.63254 1.08836,3.53718 0.34012,1.83661 0.34012,3.67322 v 7.34646 h -19.52252 v 0.81627 q 0,1.36045 0.27209,2.72091 0.27209,1.36045 1.02034,2.51684 0.74825,1.15638 2.04068,1.76859 1.29244,0.6122 2.65289,0.6122 1.02034,0 2.04068,-0.20407 1.02034,-0.20407 1.90464,-0.74825 0.88429,-0.6122 1.36045,-1.56452 0.47616,-0.95232 0.54418,-1.97266 h 7.55052 q 0,1.63255 -0.47616,3.19707 -0.47616,1.56452 -1.42847,2.92497 -0.95232,1.36046 -2.31278,2.31278 -1.29243,0.95231 -2.85695,1.56452 -1.4965,0.6122 -3.12904,0.81627 -1.56453,0.20407 -3.19707,0.20407 z m -5.986,-21.49517 h 11.972 v -0.81628 q 0,-1.36045 -0.27209,-2.7209 -0.27209,-1.36046 -1.08837,-2.51684 -0.74825,-1.15639 -2.04068,-1.76859 -1.22441,-0.61221 -2.58486,-0.61221 -1.36045,0 -2.65289,0.61221 -1.2244,0.6122 -2.04068,1.76859 -0.74825,1.15638 -1.02034,2.51684 -0.27209,1.36045 -0.27209,2.7209 z m 61.56054,20.95099 v -49.99669 h 25.4405 v 6.53018 h -17.89 v 14.21675 h 14.0127 v 6.53018 h -14.0127 v 16.1894 h 17.89 v 6.53018 z m 33.4672,0 v -35.37181 h 7.5505 v 5.57787 q 0.5442,-1.36046 1.3605,-2.51684 0.8162,-1.15639 1.9046,-1.97266 1.1564,-0.8843 2.5168,-1.22441 1.3605,-0.40814 2.789,-0.40814 1.6325,0 3.197,0.54418 1.5646,0.54419 2.7209,1.63255 1.2244,1.08836 1.9727,2.58486 0.7482,1.42848 1.1564,2.993 0.4761,1.56452 0.6122,3.19707 0.2041,1.56452 0.2041,3.19706 v 21.76727 h -7.5506 v -21.76727 q 0,-0.88429 -0.136,-1.76859 -0.068,-0.88429 -0.3401,-1.70056 -0.2041,-0.8843 -0.6803,-1.63255 -0.4081,-0.74825 -1.0883,-1.36045 -0.6122,-0.61221 -1.4965,-0.8843 -0.8163,-0.27209 -1.7006,-0.27209 -0.8843,0 -1.7686,0.27209 -0.8162,0.27209 -1.4965,0.8843 -0.6122,0.6122 -1.0883,1.36045 -0.4082,0.74825 -0.6803,1.63255 -0.204,0.81627 -0.3401,1.70056 -0.068,0.8843 -0.068,1.76859 v 21.76727 z m 46.8676,15.16906 q -1.5645,0 -3.129,-0.20407 -1.4965,-0.20407 -2.993,-0.74825 -1.4285,-0.54418 -2.7209,-1.42848 -1.2925,-0.88429 -2.2448,-2.17672 -0.8843,-1.22441 -1.4285,-2.78893 -0.4761,-1.4965 -0.4761,-2.993 h 7.5505 q 0.068,0.88429 0.5442,1.70057 0.5442,0.81627 1.2924,1.29243 0.8163,0.47616 1.7006,0.6122 0.9523,0.20407 1.9046,0.20407 1.3605,0 2.5169,-0.68023 1.2244,-0.68022 1.9046,-1.83661 0.6802,-1.08836 0.8843,-2.44882 0.2721,-1.29243 0.2721,-2.65288 v -6.66623 q -0.5442,1.36046 -1.4285,2.58487 -0.8163,1.15638 -1.9726,2.04068 -1.1564,0.81627 -2.5849,1.15638 -1.4285,0.40814 -2.857,0.40814 -1.6325,0 -3.2651,-0.54418 -1.5645,-0.47616 -2.7889,-1.56452 -1.2244,-1.08837 -2.0407,-2.51684 -0.8162,-1.4965 -1.2924,-3.06103 -0.4081,-1.56452 -0.6122,-3.19706 -0.136,-1.63255 -0.136,-3.26509 v -8.16273 q 0,-1.63254 0.136,-3.26509 0.2041,-1.63254 0.6122,-3.19706 0.4762,-1.56452 1.2924,-2.993 0.8163,-1.4965 2.0407,-2.58486 1.2244,-1.08837 2.7889,-1.56453 1.6326,-0.54418 3.2651,-0.54418 1.4285,0 2.857,0.40814 1.4285,0.34011 2.5849,1.22441 1.1563,0.81627 1.9726,2.04068 0.8843,1.15638 1.4285,2.51684 v -5.64589 h 7.5505 v 36.39215 q 0,1.83661 -0.2721,3.6052 -0.2721,1.83661 -1.0203,3.53718 -0.7483,1.70057 -1.9727,3.06102 -1.2244,1.42848 -2.8569,2.31277 -1.5646,0.8843 -3.4012,1.22441 -1.7686,0.40814 -3.6052,0.40814 z m -0.136,-21.15506 q 1.3604,0 2.5848,-0.6122 1.2245,-0.68023 1.9047,-1.83662 0.6802,-1.15638 0.9523,-2.44881 0.2721,-1.36046 0.2721,-2.72091 v -8.16273 q 0,-1.36045 -0.2721,-2.65288 -0.2721,-1.36046 -0.9523,-2.51684 -0.6802,-1.15639 -1.9047,-1.76859 -1.2244,-0.68023 -2.5848,-0.68023 -1.3605,0 -2.5849,0.68023 -1.2244,0.6122 -1.9046,1.76859 -0.6802,1.15638 -0.9523,2.51684 -0.2721,1.29243 -0.2721,2.65288 v 8.16273 q 0,1.36045 0.2721,2.72091 0.2721,1.29243 0.9523,2.44881 0.6802,1.15639 1.9046,1.83662 1.2244,0.6122 2.5849,0.6122 z m 22.3795,5.986 v -6.53018 h 8.5708 v -22.31145 h -7.6185 v -6.53018 h 15.2371 v 28.84163 h 7.6185 v 6.53018 z m 12.244,-40.13339 q -1.0883,0 -2.1767,-0.34012 -1.0884,-0.34011 -1.8366,-1.08836 -0.7483,-0.74825 -1.0884,-1.83661 -0.3401,-1.08837 -0.3401,-2.17673 0,-1.08836 0.3401,-2.17673 0.3401,-1.08836 1.0884,-1.83661 0.7482,-0.74825 1.8366,-1.08836 1.0884,-0.34012 2.1767,-0.34012 1.0884,0 2.1768,0.34012 1.0883,0.34011 1.8366,1.08836 0.7482,0.74825 1.0883,1.83661 0.3402,1.08837 0.3402,2.17673 0,1.08836 -0.3402,2.17673 -0.3401,1.08836 -1.0883,1.83661 -0.7483,0.74825 -1.8366,1.08836 -1.0884,0.34012 -2.1768,0.34012 z m 20.6789,40.13339 v -35.37181 h 7.5506 v 5.57787 q 0.5441,-1.36046 1.3604,-2.51684 0.8163,-1.15639 1.9046,-1.97266 1.1564,-0.8843 2.5169,-1.22441 1.3604,-0.40814 2.7889,-0.40814 1.6326,0 3.1971,0.54418 1.5645,0.54419 2.7209,1.63255 1.2244,1.08836 1.9727,2.58486 0.7482,1.42848 1.1563,2.993 0.4762,1.56452 0.6122,3.19707 0.2041,1.56452 0.2041,3.19706 v 21.76727 h -7.5505 v -21.76727 q 0,-0.88429 -0.1361,-1.76859 -0.068,-0.88429 -0.3401,-1.70056 -0.204,-0.8843 -0.6802,-1.63255 -0.4081,-0.74825 -1.0884,-1.36045 -0.6122,-0.61221 -1.4965,-0.8843 -0.8162,-0.27209 -1.7005,-0.27209 -0.8843,0 -1.7686,0.27209 -0.8163,0.27209 -1.4965,0.8843 -0.6122,0.6122 -1.0884,1.36045 -0.4081,0.74825 -0.6802,1.63255 -0.2041,0.81627 -0.3401,1.70056 -0.068,0.8843 -0.068,1.76859 v 21.76727 z m 47.0037,0.54418 q -1.9046,0 -3.7412,-0.34011 -1.8366,-0.34012 -3.4692,-1.22441 -1.6325,-0.8843 -2.925,-2.24475 -1.2244,-1.42848 -2.0406,-3.12905 -0.7483,-1.70056 -1.0884,-3.53718 -0.2721,-1.83661 -0.2721,-3.67322 v -8.16273 q 0,-1.83661 0.2721,-3.67322 0.3401,-1.90464 1.0884,-3.53718 0.8162,-1.70057 2.0406,-3.06102 1.2925,-1.42848 2.925,-2.31277 1.6326,-0.8843 3.4692,-1.22441 1.9046,-0.34012 3.7412,-0.34012 1.8366,0 3.6733,0.34012 1.9046,0.34011 3.5371,1.22441 1.6326,0.88429 2.857,2.31277 1.2924,1.36045 2.0407,3.06102 0.8162,1.63254 1.0883,3.53718 0.3401,1.83661 0.3401,3.67322 v 7.34646 h -19.5225 v 0.81627 q 0,1.36045 0.2721,2.72091 0.2721,1.36045 1.0204,2.51684 0.7482,1.15638 2.0406,1.76859 1.2925,0.6122 2.6529,0.6122 1.0204,0 2.0407,-0.20407 1.0203,-0.20407 1.9046,-0.74825 0.8843,-0.6122 1.3605,-1.56452 0.4762,-0.95232 0.5442,-1.97266 h 7.5505 q 0,1.63255 -0.4762,3.19707 -0.4761,1.56452 -1.4284,2.92497 -0.9524,1.36046 -2.3128,2.31278 -1.2924,0.95231 -2.857,1.56452 -1.4965,0.6122 -3.129,0.81627 -1.5645,0.20407 -3.1971,0.20407 z m -5.986,-21.49517 h 11.972 v -0.81628 q 0,-1.36045 -0.2721,-2.7209 -0.2721,-1.36046 -1.0883,-2.51684 -0.7483,-1.15639 -2.0407,-1.76859 -1.2244,-0.61221 -2.5849,-0.61221 -1.3604,0 -2.6529,0.61221 -1.2244,0.6122 -2.0406,1.76859 -0.7483,1.15638 -1.0204,2.51684 -0.2721,1.36045 -0.2721,2.7209 z m 39.9974,21.49517 q -1.9047,0 -3.7413,-0.34011 -1.8366,-0.34012 -3.4691,-1.22441 -1.6326,-0.8843 -2.925,-2.24475 -1.2244,-1.42848 -2.0407,-3.12905 -0.7482,-1.70056 -1.0883,-3.53718 -0.2721,-1.83661 -0.2721,-3.67322 v -8.16273 q 0,-1.83661 0.2721,-3.67322 0.3401,-1.90464 1.0883,-3.53718 0.8163,-1.70057 2.0407,-3.06102 1.2924,-1.42848 2.925,-2.31277 1.6325,-0.8843 3.4691,-1.22441 1.9047,-0.34012 3.7413,-0.34012 1.8366,0 3.6732,0.34012 1.9046,0.34011 3.5372,1.22441 1.6325,0.88429 2.8569,2.31277 1.2925,1.36045 2.0407,3.06102 0.8163,1.63254 1.0884,3.53718 0.3401,1.83661 0.3401,3.67322 v 7.34646 h -19.5225 v 0.81627 q 0,1.36045 0.2721,2.72091 0.2721,1.36045 1.0203,2.51684 0.7483,1.15638 2.0407,1.76859 1.2924,0.6122 2.6529,0.6122 1.0203,0 2.0407,-0.20407 1.0203,-0.20407 1.9046,-0.74825 0.8843,-0.6122 1.3605,-1.56452 0.4761,-0.95232 0.5441,-1.97266 h 7.5506 q 0,1.63255 -0.4762,3.19707 -0.4762,1.56452 -1.4285,2.92497 -0.9523,1.36046 -2.3128,2.31278 -1.2924,0.95231 -2.8569,1.56452 -1.4965,0.6122 -3.1291,0.81627 -1.5645,0.20407 -3.197,0.20407 z m -5.986,-21.49517 h 11.972 v -0.81628 q 0,-1.36045 -0.2721,-2.7209 -0.2721,-1.36046 -1.0884,-2.51684 -0.7482,-1.15639 -2.0407,-1.76859 -1.2244,-0.61221 -2.5848,-0.61221 -1.3605,0 -2.6529,0.61221 -1.2244,0.6122 -2.0407,1.76859 -0.7482,1.15638 -1.0203,2.51684 -0.2721,1.36045 -0.2721,2.7209 z m 30.8143,20.95099 v -35.37181 h 7.6185 v 6.66623 q 0.4081,-1.42848 1.0884,-2.72091 0.7482,-1.29243 1.7005,-2.31277 1.0204,-1.08836 2.3808,-1.63255 1.4285,-0.54418 2.857,-0.54418 1.2924,0 2.5168,0.40814 1.2925,0.40814 2.2448,1.29243 0.9523,0.8843 1.5645,2.04068 0.6122,1.15639 0.9523,2.44882 0.3401,1.22441 0.4082,2.51684 0.136,1.29243 0.136,2.58486 h -7.6185 q 0,-0.81627 -0.1361,-1.63254 -0.068,-0.81628 -0.4081,-1.4965 -0.3401,-0.74825 -1.0884,-1.15639 -0.6802,-0.47616 -1.4965,-0.47616 -1.0884,0 -2.0407,0.68023 -0.8843,0.6122 -1.4284,1.56452 -0.5442,0.8843 -0.8843,1.97266 -0.2721,1.02034 -0.4762,2.1087 -0.136,1.08837 -0.2041,2.17673 -0.068,1.02034 -0.068,2.1087 v 18.77427 z"
         id="text2"
         style="font-weight:bold;font-size:68.0227px;font-family:Iosevka;-inkscape-font-specification:'Iosevka Bold';fill:#ffffff;stroke-width:4.25142"
         inkscape:label="copy"
         aria-label="Freelance Remote Software Engineer" /></g><g
       id="g6"
       transform="translate(0,5.1918673)"
       inkscape:label="name"
       style="display:inline"><path
         id="path2"
         style="font-weight:bold;font-size:212.573px;font-family:Iosevka;-inkscape-font-specification:'Iosevka Bold';mix-blend-mode:normal;fill:#000000;stroke:none;stroke-width:3.32146;filter:url(#filter3)"
         inkscape:label="shadow"
         d="m 145.6543,346.57206 c 0,10.13542 0,20.27083 0,30.40625 8.5026,0 17.00521,0 25.50781,0 -0.009,29.56837 0.0358,59.13725 -0.0423,88.70528 -0.0322,2.83074 -0.55062,5.63535 -1.4437,8.31768 -0.815,2.68412 -1.97165,5.55406 -4.40268,7.16454 -3.48525,2.04587 -8.27838,0.54087 -10.42083,-2.76515 -1.34942,-2.17902 -2.01495,-4.72925 -2.30378,-7.26024 -0.31188,-2.83489 -0.17212,-5.69626 -0.22071,-8.53711 -0.11981,-1.35685 -1.55322,-2.30655 -2.85351,-1.9668 -10.9655,0 -21.93099,0 -32.89649,0 -0.17246,7.39585 -0.16963,14.92497 1.86584,22.10132 2.35383,8.64296 7.20727,16.69461 14.12629,22.43805 6.01587,4.95528 13.54274,7.89555 21.25265,8.81186 7.76703,1.0132 15.7824,0.57349 23.30052,-1.68856 7.09918,-2.17555 13.49081,-6.50958 18.19073,-12.25221 4.93476,-5.96577 8.44092,-13.13482 9.92999,-20.74444 1.35152,-6.90687 1.62282,-13.97307 1.51367,-20.99492 0,-37.91185 0,-75.8237 0,-113.73555 -20.36784,0 -40.73567,0 -61.10351,0 0,0.66667 0,1.33333 0,2 z m 639.97656,-0.39648 c -11.25843,55.54584 -22.52246,111.09055 -33.7793,166.63671 12.19076,0 24.38151,0 36.57227,0 2.12215,-11.62084 4.24905,-23.24082 6.37305,-34.86132 6.44596,0 12.89192,0 19.33789,0 2.12337,11.6205 4.24941,23.24051 6.37109,34.86132 12.19141,0 24.38281,0 36.57422,0 C 845.714,456.73173 834.34476,400.6518 822.97461,344.57206 c -12.33919,0 -24.67839,0 -37.01758,0 -0.10872,0.53451 -0.21745,1.06901 -0.32617,1.60352 z m -311.21875,42.40234 c -6.4594,0.18486 -12.97389,1.81276 -18.50527,5.21534 -5.88556,3.72533 -10.20582,9.4891 -13.1438,15.72862 -3.05924,6.22521 -4.5035,13.11771 -5.11424,19.98975 -0.55439,7.46659 -0.27177,14.9612 -0.33813,22.44089 0.0296,6.5648 -0.13363,13.13708 0.21088,19.69561 0.27836,4.98286 1.07436,9.91114 2.44339,14.68439 2.18174,7.28177 5.82661,14.30344 11.47517,19.49821 3.68859,3.47896 8.28122,5.92818 13.17538,7.21691 5.45646,1.52955 11.24474,1.90049 16.8315,0.89793 5.12136,-0.91125 10.22928,-2.57227 14.41776,-5.74701 0.41588,-0.32196 0.95917,-0.92673 0.75408,0.0184 0.0115,4.07883 -0.27641,8.22323 -1.54852,12.12266 -1.1555,3.50358 -4.10195,6.4499 -7.75449,7.22958 -2.24835,0.48205 -4.65125,0.15483 -6.78457,-0.23349 -2.21206,-0.37447 -4.52301,-1.36459 -5.62128,-3.44175 -0.79527,-1.33961 -0.79707,-2.92282 -0.93724,-4.42001 -0.38203,-2.22805 -2.6546,-3.91239 -4.90125,-3.56793 -10.18268,0 -20.36536,0 -30.54804,0 -0.0293,5.8363 -0.0903,11.83813 1.93649,17.40031 2.61016,7.91056 7.95232,14.94413 15.06945,19.32261 6.49039,4.1806 14.06066,6.51289 21.72453,7.20091 7.25359,0.74761 14.64773,0.44874 21.74518,-1.29233 8.89368,-1.94836 17.10595,-6.97348 22.75024,-14.13681 5.46163,-6.67965 8.62727,-15.02614 9.73474,-23.53636 1.0622,-7.6277 0.62279,-15.34807 0.71388,-23.02239 0.003,-35.8556 0.006,-71.7112 0.009,-107.56679 -11.86458,0 -23.72917,0 -35.59375,0 -0.002,1.78775 -0.003,3.57552 -0.004,5.36328 -3.63046,-2.94281 -7.9634,-4.97286 -12.53185,-5.9431 -3.16003,-0.75635 -6.41364,-1.16547 -9.66542,-1.11745 z m -202.88281,0.0137 c -8.12257,0.2371 -16.44294,1.51682 -23.64676,5.47927 -10.26896,5.46055 -17.7745,15.47594 -20.90551,26.60151 -1.81952,6.15005 -2.21885,12.60045 -2.24618,18.98082 0.0286,8.71515 -0.052,17.43091 0.0427,26.1458 0.0745,6.38685 0.79379,12.82555 2.86807,18.89469 1.87583,5.72339 5.02087,10.99978 8.96447,15.53661 6.8289,7.68487 16.67095,12.44194 26.83555,13.61922 9.50197,1.25809 19.33124,0.77685 28.50045,-2.13132 8.14057,-2.71671 15.35368,-8.1019 20.26945,-15.13786 4.58264,-6.36815 7.34773,-13.94752 8.31872,-21.71219 0.83288,-5.36465 0.87397,-10.80605 0.80312,-16.22186 -0.0313,-7.78522 0.0995,-15.57413 -0.10476,-23.35679 -0.29897,-5.18861 -1.05465,-10.37332 -2.47645,-15.37685 -1.43671,-4.50801 -3.47663,-8.8468 -6.15644,-12.75074 -2.63973,-3.65872 -5.72688,-7.02751 -9.28405,-9.81201 -6.29093,-4.80705 -14.04724,-7.39973 -21.86532,-8.24614 -3.28689,-0.41604 -6.60509,-0.56929 -9.91703,-0.51216 z m 318.85937,0 c -8.12325,0.23376 -16.44104,1.51974 -23.64689,5.47705 -10.22302,5.43854 -17.70824,15.38975 -20.86374,26.45628 -1.80461,6.04859 -2.24525,12.3925 -2.28251,18.67359 -0.002,7.77581 -0.0148,15.55188 0.003,23.32782 -0.0346,7.23875 0.42276,14.59652 2.75688,21.50301 2.17765,6.7484 5.88365,13.03686 10.87918,18.08153 6.86043,6.68316 16.05796,10.79369 25.55552,11.80661 7.94219,0.99801 16.05517,0.75313 23.90853,-0.80309 8.64273,-1.94853 16.84916,-6.25827 22.9873,-12.69663 6.62614,-7.12359 10.12191,-16.8784 10.10054,-26.56012 0.0341,-1.41779 0.14198,-2.99674 -0.85054,-4.14886 -1.00694,-1.34863 -2.78844,-1.88774 -4.40938,-1.63086 -9.96575,0 -19.93151,0 -29.89726,0 -0.30415,2.93546 -0.13247,5.99262 -1.19484,8.79343 -0.79983,2.19745 -2.78847,3.75439 -5.00067,4.37164 -3.99273,1.05538 -8.4435,1.38994 -12.26452,-0.45454 -2.66428,-1.21828 -4.48481,-3.73015 -5.44766,-6.43311 -0.80438,-2.11274 -1.16337,-4.36425 -1.35599,-6.6075 20.278,0 40.55599,0 60.83399,0 -0.0494,-10.6504 0.0859,-21.30293 -0.0847,-31.9519 -0.26466,-5.32713 -1.03507,-10.64832 -2.47281,-15.78797 -1.43838,-4.55093 -3.49491,-8.92936 -6.20028,-12.8656 -2.65404,-3.67388 -5.7569,-7.05773 -9.33786,-9.84574 -6.30838,-4.79107 -14.07031,-7.36955 -21.89335,-8.20973 -3.25766,-0.39386 -6.54072,-0.55944 -9.82153,-0.49531 z m 425.17973,-0.008 c -7.0603,0.14089 -14.2501,0.9099 -20.80051,3.71288 -6.317,2.58802 -12.37626,6.32757 -16.56672,11.81837 -5.43243,7.03929 -8.34209,15.95594 -8.20785,24.84021 0.0304,2.01855 0.0147,4.0375 0.0184,6.05627 11.25521,0 22.51042,0 33.76558,0 -8.95721,2.00105 -17.65582,6.00316 -24.29123,12.44585 -5.66087,5.5993 -9.38487,13.14459 -10.21628,21.07715 -1.2615,9.18144 -0.2875,18.82128 3.65404,27.27192 3.62789,7.54596 10.26836,13.64498 18.23253,16.32068 4.72482,1.58879 9.72544,2.29173 14.69894,2.38114 5.5012,7.3e-4 11.0568,-0.9134 16.1447,-3.04556 2.1381,-0.94113 4.1635,-2.1322 6.0449,-3.51563 0,1.62174 0,3.24349 0,4.86523 11.8653,0 23.7305,0 35.5957,0 -0.011,-27.46701 0.039,-54.93481 -0.039,-82.40132 -0.2348,-7.34429 -1.6846,-14.83386 -5.5123,-21.19854 -2.2988,-4.11491 -5.3685,-7.7914 -9.0535,-10.73543 -5.8744,-4.82893 -13.1044,-7.95791 -20.6396,-8.96897 -4.2461,-0.63935 -8.5312,-1.00201 -12.8277,-0.92425 z m 212.5742,0 c -7.0449,0.14294 -14.2212,0.90119 -20.7581,3.69804 -5.7086,2.33447 -11.1969,5.58278 -15.3051,10.2509 -6.4294,7.39982 -9.8038,17.29577 -9.4991,27.07292 0.018,1.80191 0,3.60391 0,5.40587 11.2598,0 22.5196,0 33.7793,0 -9.0076,2.00648 -17.756,6.04005 -24.4023,12.54688 -5.6367,5.60856 -9.3187,13.16102 -10.1286,21.0824 -1.2205,8.96672 -0.2962,18.3581 3.4291,26.6586 3.3942,7.38138 9.6386,13.45503 17.2461,16.3787 4.8784,1.87705 10.1263,2.64828 15.3303,2.81903 5.7002,0.0875 11.4709,-0.83176 16.7435,-3.04043 2.136,-0.93855 4.1598,-2.12662 6.0378,-3.50963 0,1.62174 0,3.24349 0,4.86523 11.8652,0 23.7305,0 35.5957,0 -0.011,-27.46888 0.034,-54.93836 -0.036,-82.40686 -0.2411,-7.35125 -1.6903,-14.85061 -5.531,-21.21755 -2.2214,-3.96388 -5.1464,-7.53221 -8.6723,-10.40589 -5.8875,-4.96233 -13.1903,-8.18746 -20.8142,-9.24629 -4.3084,-0.65572 -8.6563,-1.03092 -13.0172,-0.95192 z m -829.25979,0 c -6.70008,0.17412 -13.45609,2.50951 -18.45312,7.05469 0,-1.78776 0,-3.57552 0,-5.36328 -11.93555,0 -23.8711,-1e-5 -35.80664,0 0,40.8457 0,81.6914 0,122.5371 11.93554,0 23.87109,0 35.80664,0 0.013,-22.42547 -0.0442,-44.8517 0.0459,-67.27668 0.11722,-3.38402 0.29102,-6.77526 0.8193,-10.12371 0.0839,-0.5155 0.23267,-1.36173 0.37116,-2.00238 0.81384,-3.86189 2.01146,-7.91586 4.93873,-10.73082 1.23586,-1.09888 3.03655,-2.15489 4.70982,-1.45371 1.06793,0.41829 1.87488,1.32724 2.12573,2.45208 0.65933,2.65148 0.69095,5.40694 0.76286,8.12372 -0.0625,2.40339 2.33919,4.26973 4.64248,4.0994 3.65411,-0.10684 7.31986,-0.0126 10.97852,-0.0411 6.73177,0.004 13.46354,0.001 20.19531,0.002 -0.0296,-6.50673 -0.0542,-13.04358 -1.08022,-19.46522 -1.12114,-6.47237 -3.584,-12.81854 -7.70298,-17.98204 -3.39335,-4.16072 -8.05445,-7.31795 -13.27513,-8.65572 -2.94475,-0.84419 -6.01682,-1.22704 -9.07839,-1.17436 z m 531.44141,0 c -6.70333,0.16778 -13.45873,2.50982 -18.46094,7.05078 0,-1.78646 0,-3.57292 0,-5.35937 -11.9362,0 -23.87239,-1e-5 -35.80859,0 0,40.8457 0,81.6914 0,122.5371 11.9362,0 23.87239,0 35.80859,0 0.0132,-22.42609 -0.0443,-44.85306 0.0452,-67.27859 0.0555,-1.4132 0.1008,-2.67886 0.18336,-4.05344 0.052,-0.86532 0.14619,-2.0183 0.23828,-2.99218 0.48742,-4.20593 1.21413,-8.4903 3.13294,-12.30702 1.18304,-2.256 2.96315,-4.58241 5.59473,-5.1227 1.23912,-0.3113 2.51523,0.42174 3.26256,1.36722 1.03462,1.77324 0.94667,3.91502 1.20638,5.89098 0.17359,1.45422 -0.11213,2.94905 0.21649,4.37875 0.5991,2.20891 3.05683,3.54595 5.25916,3.16581 10.15222,0 20.30443,0 30.45664,0 -0.0454,-6.63512 -0.0518,-13.3135 -1.16077,-19.87453 -1.15324,-6.34221 -3.60707,-12.55037 -7.65954,-17.60789 -3.38616,-4.14598 -8.03591,-7.28097 -13.23705,-8.62321 -2.94678,-0.83417 -6.01544,-1.22923 -9.0774,-1.17171 z m 142.64058,4.23242 c 10.7459,38.22366 21.4895,76.44797 32.2344,114.67188 -3.529,13.11638 -7.1138,26.26695 -10.8672,39.29101 -1.1606,3.91731 -2.3505,7.82581 -3.5273,11.73828 12.3633,0 24.7266,0 37.0898,0 15.4861,-56.08117 30.9763,-112.16119 46.4629,-168.24218 -12.3769,0 -24.7539,-1e-5 -37.1308,0 -4.5093,20.10595 -8.9925,40.2179 -13.543,60.31445 -4.7748,-20.10481 -9.5491,-40.20972 -14.3242,-60.31445 -12.3698,0 -24.7396,-1e-5 -37.1094,0 0.2383,0.847 0.4766,1.69401 0.7148,2.54101 z m -587.73628,28.17578 c 2.9247,0.2008 5.8716,1.49975 7.74704,3.79121 1.27963,1.6555 2.05522,3.63745 2.59671,5.64239 0.0809,0.34784 0.239,0.91226 0.34043,1.45426 1.1078,5.36522 0.57322,10.87511 0.69498,16.31019 -0.0237,6.31351 0.099,12.6315 -0.11009,18.94189 -0.32146,4.24871 -1.30485,8.71542 -4.18118,12.00459 -3.14859,3.21355 -8.3862,3.76804 -12.38646,1.93798 -2.26184,-0.98192 -3.85734,-2.99981 -4.8517,-5.20015 -2.18149,-4.61735 -2.22341,-9.84347 -2.17272,-14.84603 0.009,-7.74859 -0.0542,-15.49826 0.0371,-23.24616 0.1115,-4.09345 0.77999,-8.31547 2.85227,-11.90625 1.57376,-2.8234 4.74117,-4.39936 7.84962,-4.83314 0.52664,-0.0478 1.05534,-0.068 1.58399,-0.0508 z m -211.48829,0.0156 c 3.75316,0.22208 7.4943,2.22371 9.31646,5.58862 1.84859,2.917 2.36852,6.4154 2.58784,9.7981 0.0185,0.44329 0.058,1.01094 0.0699,1.5433 0.0709,4.57726 -0.004,9.15576 0.026,13.73365 -0.0201,5.14092 0.075,10.28697 -0.12475,15.42412 -0.2219,3.66025 -0.99138,7.43846 -3.22815,10.43438 -2.64701,3.77343 -7.74985,5.2701 -12.14338,4.2651 -3.31346,-0.6853 -6.31184,-2.88234 -7.74845,-5.97729 -2.22279,-4.58564 -2.16915,-9.81543 -2.17921,-14.79553 0.0862,-8.2272 -0.11204,-16.45745 0.10775,-24.68271 0.28285,-4.13372 1.03068,-8.56709 3.89529,-11.75503 2.37011,-2.55748 5.98246,-3.76292 9.42077,-3.57671 z m 318.8086,-0.002 c 3.74142,0.20491 7.47807,2.17564 9.32073,5.51365 1.6902,2.62479 2.29205,5.75882 2.56013,8.82229 -8.35677,0 -16.71354,0 -25.07031,0 0.13511,-1.57157 0.39012,-3.43376 0.86052,-5.06809 0.81882,-3.05036 2.52038,-6.04061 5.36278,-7.60741 2.09217,-1.22037 4.55185,-1.77865 6.96615,-1.66044 z m 423.99997,0.006 c 3.0685,-0.0177 6.4909,0.5454 8.6496,2.93325 2.4411,2.31032 2.8856,5.88648 2.8495,9.07964 0.1837,0.71701 -0.7771,0.29096 -1.1991,0.40259 -7.0926,-0.0194 -14.2406,-0.0577 -21.2433,1.2232 0.1152,-2.2975 -0.1475,-4.60408 0.088,-6.89454 0.4198,-2.98457 2.9069,-5.33493 5.738,-6.12501 1.654,-0.50392 3.3987,-0.60246 5.1174,-0.61913 z m 212.4903,0 c 3.1137,-0.0351 6.5754,0.53874 8.7652,2.96096 2.417,2.3263 2.8593,5.89234 2.8148,9.0824 0.1097,0.73471 -1.0267,0.2209 -1.5,0.37155 -6.9924,-0.0205 -14.0382,-0.0372 -20.9414,1.22377 0.1146,-2.28441 -0.1445,-4.57801 0.084,-6.85547 0.403,-3.02316 2.9345,-5.40364 5.8021,-6.1826 1.6102,-0.48272 3.3044,-0.5756 4.9753,-0.60061 z m -420.71293,24.53321 c -2.57291,0 -5.14583,0 -7.71875,0 1.28646,-7.04688 2.57292,-14.09375 3.85938,-21.14063 1.28646,7.04688 2.57291,14.09375 3.85937,21.14063 z m 212.82223,20.28906 c 2.3015,0 4.6029,0 6.9043,0 0.035,3.76509 -0.065,7.70643 -1.7387,11.15887 -1.0649,2.19049 -3.1675,3.68271 -5.4612,4.37168 -3.476,1.09597 -7.2492,0.86031 -10.7493,0.005 -2.3948,-0.6923 -4.5063,-2.46983 -5.2766,-4.88354 -0.6697,-1.89706 -0.7791,-4.2169 0.3871,-5.93974 1.7515,-2.08513 4.4957,-2.85259 6.9718,-3.71409 2.9003,-0.8618 5.9582,-0.96213 8.9626,-0.99778 z m 212.5723,0 c 2.3014,0 4.6029,0 6.9043,0 0.034,3.7303 -0.064,7.6279 -1.6894,11.06054 -1.0004,2.11969 -2.9644,3.62212 -5.1582,4.35351 -3.5613,1.2326 -7.4731,0.99946 -11.086,0.12501 -2.4475,-0.69572 -4.5877,-2.54097 -5.3363,-5.01332 -0.6278,-1.88169 -0.7175,-4.17079 0.463,-5.85436 1.7572,-2.05946 4.4872,-2.81618 6.9501,-3.67459 2.0788,-0.62207 4.2519,-0.83811 6.4115,-0.94015 0.6392,-0.0185 1.7434,-0.0519 2.541,-0.0566 z" /><path
         d="m 161.64481,508.51385 q -5.31432,0 -10.62865,-1.06286 -5.10175,-1.06287 -9.77835,-3.61374 -4.67661,-2.55088 -8.29035,-6.58976 -3.61374,-4.03889 -5.95204,-8.7155 -2.33831,-4.88918 -3.40117,-9.99093 -1.06287,-5.31432 -1.06287,-10.62865 v -1.27544 h 23.80818 v 0.63772 q 0,3.61374 0.63772,7.22749 0.85029,3.61374 2.55087,6.80233 1.91316,2.97602 5.10176,4.88918 3.40116,1.91316 7.0149,1.91316 2.76345,0 5.31433,-1.06287 2.55088,-1.06286 4.25146,-3.18859 1.91316,-2.12573 2.97602,-4.67661 1.06287,-2.55087 1.70059,-5.10175 0.85029,-2.76345 1.06286,-5.31433 0.21257,-2.76344 0.21257,-5.52689 v -92.25668 h -25.50876 v -20.40701 h 49.10437 v 112.66369 q 0,5.73947 -0.8503,11.47894 -0.63771,5.5269 -2.76344,10.84122 -2.12573,5.10175 -5.73948,9.77836 -3.40116,4.46403 -8.29034,7.65263 -4.67661,2.97602 -10.20351,4.25146 -5.52689,1.27543 -11.26637,1.27543 z m 111.38826,0 q -5.73948,0 -11.69152,-1.06286 -5.73947,-1.06287 -10.84122,-3.82631 -5.10175,-2.76345 -9.14064,-7.01491 -3.82631,-4.46404 -6.37719,-9.56579 -2.3383,-5.31432 -3.40117,-11.05379 -0.85029,-5.95205 -0.85029,-11.69152 v -25.50876 q 0,-5.73947 0.85029,-11.47894 1.06287,-5.95204 3.40117,-11.0538 2.55088,-5.31432 6.37719,-9.56578 4.03889,-4.46403 9.14064,-7.22748 5.10175,-2.76345 10.84122,-3.82632 5.95204,-1.06286 11.69152,-1.06286 5.73947,0 11.47894,1.06286 5.95204,1.06287 11.05379,3.82632 5.10176,2.76345 8.92807,7.22748 4.03889,4.25146 6.37719,9.56578 2.55088,5.10176 3.40117,11.0538 1.06286,5.73947 1.06286,11.47894 v 25.50876 q 0,5.73947 -1.06286,11.69152 -0.85029,5.73947 -3.40117,11.05379 -2.3383,5.10175 -6.37719,9.56579 -3.82631,4.25146 -8.92807,7.01491 -5.10175,2.76344 -11.05379,3.82631 -5.73947,1.06286 -11.47894,1.06286 z m 0,-20.407 q 4.25146,0 8.07777,-1.91316 4.03889,-1.91316 6.37719,-5.5269 2.55088,-3.61374 3.40117,-7.8652 0.85029,-4.25146 0.85029,-8.50292 v -25.50876 q 0,-4.25146 -0.85029,-8.50292 -0.85029,-4.25146 -3.40117,-7.8652 -2.3383,-3.61374 -6.37719,-5.5269 -3.82631,-1.91315 -8.07777,-1.91315 -4.25146,0 -8.29035,1.91315 -3.82632,1.91316 -6.37719,5.5269 -2.3383,3.61374 -3.1886,7.8652 -0.85029,4.25146 -0.85029,8.50292 v 25.50876 q 0,4.25146 0.85029,8.50292 0.8503,4.25146 3.1886,7.8652 2.55087,3.61374 6.37719,5.5269 4.03889,1.91316 8.29035,1.91316 z m 77.58914,18.70642 V 396.27531 h 23.80818 v 20.83216 q 1.27543,-4.46404 3.40116,-8.50292 2.33831,-4.03889 5.31433,-7.22749 3.18859,-3.40116 7.44005,-5.10175 4.46404,-1.70058 8.92807,-1.70058 4.03889,0 7.8652,1.27544 4.03889,1.27543 7.01491,4.03888 2.97602,2.76345 4.88918,6.37719 1.91316,3.61374 2.97602,7.65263 1.06287,3.82631 1.27544,7.8652 0.42514,4.03889 0.42514,8.07778 h -23.80817 q 0,-2.55088 -0.42515,-5.10176 -0.21257,-2.55087 -1.27544,-4.6766 -1.06286,-2.33831 -3.40116,-3.61374 -2.12573,-1.48801 -4.67661,-1.48801 -3.40117,0 -6.37719,2.12573 -2.76345,1.91315 -4.46403,4.88917 -1.70059,2.76345 -2.76345,6.16462 -0.85029,3.1886 -1.48801,6.58976 -0.42515,3.40117 -0.63772,6.80234 -0.21257,3.1886 -0.21257,6.58976 v 58.67015 z m 134.55871,47.40378 q -4.88918,0 -9.77836,-0.63772 -4.67661,-0.63772 -9.35321,-2.3383 -4.46403,-1.70059 -8.50292,-4.46404 -4.03889,-2.76344 -7.01491,-6.80233 -2.76345,-3.82632 -4.46403,-8.71549 -1.48801,-4.67661 -1.48801,-9.35322 h 23.5956 q 0.21257,2.76345 1.70058,5.31433 1.70059,2.55087 4.03889,4.03889 2.55087,1.48801 5.31432,1.91315 2.97603,0.63772 5.95205,0.63772 4.25146,0 7.8652,-2.12573 3.82631,-2.12573 5.95204,-5.73947 2.12573,-3.40117 2.76345,-7.65263 0.85029,-4.03888 0.85029,-8.29034 v -20.83216 q -1.70058,4.25146 -4.46403,8.07778 -2.55088,3.61374 -6.16462,6.37719 -3.61374,2.55087 -8.07777,3.61374 -4.46403,1.27543 -8.92807,1.27543 -5.10175,0 -10.2035,-1.70058 -4.88918,-1.48801 -8.71549,-4.88918 -3.82632,-3.40117 -6.37719,-7.8652 -2.55088,-4.6766 -4.03889,-9.56578 -1.27544,-4.88918 -1.91316,-9.99093 -0.42514,-5.10176 -0.42514,-10.20351 v -25.50876 q 0,-5.10175 0.42514,-10.2035 0.63772,-5.10175 1.91316,-9.99093 1.48801,-4.88918 4.03889,-9.35322 2.55087,-4.6766 6.37719,-8.07777 3.82631,-3.40117 8.71549,-4.88918 5.10175,-1.70058 10.2035,-1.70058 4.46404,0 8.92807,1.27544 4.46403,1.06286 8.07777,3.82631 3.61374,2.55088 6.16462,6.37719 2.76345,3.61374 4.46403,7.8652 v -17.64356 h 23.59561 v 113.72656 q 0,5.73947 -0.8503,11.26636 -0.85029,5.73948 -3.18859,11.0538 -2.3383,5.31433 -6.16462,9.56579 -3.82631,4.46403 -8.92806,7.22748 -4.88918,2.76345 -10.62865,3.82631 -5.5269,1.27544 -11.26637,1.27544 z m -0.42515,-66.1102 q 4.25146,0 8.07778,-1.91316 3.82631,-2.12573 5.95204,-5.73947 2.12573,-3.61374 2.97602,-7.65263 0.85029,-4.25146 0.85029,-8.50292 v -25.50876 q 0,-4.25146 -0.85029,-8.29035 -0.85029,-4.25146 -2.97602,-7.8652 -2.12573,-3.61374 -5.95204,-5.52689 -3.82632,-2.12573 -8.07778,-2.12573 -4.25146,0 -8.07777,2.12573 -3.82632,1.91315 -5.95205,5.52689 -2.12573,3.61374 -2.97602,7.8652 -0.85029,4.03889 -0.85029,8.29035 v 25.50876 q 0,4.25146 0.85029,8.50292 0.85029,4.03889 2.97602,7.65263 2.12573,3.61374 5.95205,5.73947 3.82631,1.91316 8.07777,1.91316 z m 107.13679,20.407 q -5.95204,0 -11.69151,-1.06286 -5.73947,-1.06287 -10.84122,-3.82631 -5.10176,-2.76345 -9.14064,-7.01491 -3.82632,-4.46404 -6.37719,-9.77836 -2.33831,-5.31433 -3.40117,-11.0538 -0.85029,-5.73947 -0.85029,-11.47894 v -25.50876 q 0,-5.73947 0.85029,-11.47894 1.06286,-5.95204 3.40117,-11.0538 2.55087,-5.31432 6.37719,-9.56578 4.03888,-4.46403 9.14064,-7.22748 5.10175,-2.76345 10.84122,-3.82632 5.95204,-1.06286 11.69151,-1.06286 5.73947,0 11.47894,1.06286 5.95205,1.06287 11.0538,3.82632 5.10175,2.76345 8.92807,7.22748 4.03888,4.25146 6.37719,9.56578 2.55087,5.10176 3.40116,11.0538 1.06287,5.73947 1.06287,11.47894 v 22.95789 h -61.00845 v 2.55087 q 0,4.25146 0.85029,8.50292 0.85029,4.25146 3.1886,7.8652 2.3383,3.61374 6.37719,5.5269 4.03888,1.91316 8.29034,1.91316 3.1886,0 6.37719,-0.63772 3.1886,-0.63772 5.95205,-2.3383 2.76345,-1.91316 4.25146,-4.88918 1.48801,-2.97603 1.70058,-6.16462 h 23.5956 q 0,5.10175 -1.48801,9.99093 -1.48801,4.88918 -4.46403,9.14064 -2.97602,4.25146 -7.22748,7.22748 -4.03889,2.97602 -8.92807,4.88918 -4.6766,1.91316 -9.77836,2.55088 -4.88918,0.63771 -9.99093,0.63771 z m -18.70642,-67.17306 h 37.41285 v -2.55088 q 0,-4.25146 -0.8503,-8.50292 -0.85029,-4.25146 -3.40116,-7.8652 -2.33831,-3.61374 -6.37719,-5.5269 -3.82632,-1.91315 -8.07778,-1.91315 -4.25146,0 -8.29034,1.91315 -3.82632,1.91316 -6.37719,5.5269 -2.33831,3.61374 -3.1886,7.8652 -0.85029,4.25146 -0.85029,8.50292 z m 186.00137,65.47248 31.67338,-156.24115 h 27.20934 l 31.67338,156.24115 H 825.51029 L 819.1331,471.9513 h -29.33508 l -6.37719,34.86197 z m 34.22426,-55.26898 h 22.10759 l -8.92807,-48.89179 q -0.42515,-2.97602 -1.06286,-5.95204 -0.42515,-3.1886 -1.06287,-6.16462 -0.63772,2.97602 -1.27544,6.16462 -0.42514,2.97602 -0.85029,5.95204 z m 88.64294,55.26898 V 396.27531 h 23.80817 v 20.83216 q 1.27544,-4.46404 3.40117,-8.50292 2.3383,-4.03889 5.31432,-7.22749 3.1886,-3.40116 7.44006,-5.10175 4.46403,-1.70058 8.92806,-1.70058 4.03889,0 7.86521,1.27544 4.03888,1.27543 7.0149,4.03888 2.97603,2.76345 4.88918,6.37719 1.91316,3.61374 2.97603,7.65263 1.06286,3.82631 1.27543,7.8652 0.42515,4.03889 0.42515,8.07778 h -23.80818 q 0,-2.55088 -0.42514,-5.10176 -0.21258,-2.55087 -1.27544,-4.6766 -1.06287,-2.33831 -3.40117,-3.61374 -2.12573,-1.48801 -4.6766,-1.48801 -3.40117,0 -6.37719,2.12573 -2.76345,1.91315 -4.46404,4.88917 -1.70058,2.76345 -2.76345,6.16462 -0.85029,3.1886 -1.48801,6.58976 -0.42514,3.40117 -0.63772,6.80234 -0.21257,3.1886 -0.21257,6.58976 v 58.67015 z m 124.35519,1.70058 q -6.58975,0 -12.96694,-1.91315 -6.16462,-2.12573 -10.62865,-6.80234 -4.25146,-4.6766 -6.16462,-10.84122 -1.91316,-6.37719 -1.91316,-12.75438 0,-5.73947 1.27544,-11.26637 1.48801,-5.5269 4.88918,-9.99093 3.40117,-4.46403 8.07777,-7.44006 4.88918,-3.18859 9.99093,-4.88917 5.31435,-1.91316 10.84125,-2.55088 5.7394,-0.63772 11.2663,-0.63772 h 12.967 v -7.22748 q 0,-3.61374 -1.0629,-6.80234 -1.0628,-3.40117 -3.6137,-5.73947 -2.3383,-2.55087 -5.7395,-3.61374 -3.4011,-1.06286 -6.8023,-1.06286 -3.1886,0 -6.1646,0.63771 -2.9761,0.63772 -5.5269,2.55088 -2.5509,1.70058 -4.0389,4.67661 -1.48803,2.76345 -1.48803,5.73947 v 0.42514 h -23.5956 v -1.06286 q 0,-4.88918 1.48801,-9.56579 1.48801,-4.88918 4.25146,-8.92806 2.76345,-4.25146 6.80234,-7.01491 4.25146,-2.97602 8.71549,-4.67661 4.67663,-1.91315 9.56583,-2.55087 5.1017,-0.63772 9.9909,-0.63772 5.3143,0 10.4161,0.85029 5.3143,0.63772 9.9909,2.76345 4.8892,2.12573 8.9281,5.73947 4.0388,3.40117 6.5897,8.07777 2.7635,4.46404 3.8263,9.77836 1.0629,5.10175 1.0629,10.41608 v 74.61312 h -23.5956 v -15.7304 q -1.9132,3.82631 -4.6766,7.44005 -2.7635,3.40117 -6.5898,5.73947 -3.6137,2.33831 -7.8652,3.1886 -4.2514,1.06286 -8.5029,1.06286 z m 9.7784,-20.407 q 3.6137,0 7.2274,-1.27544 3.6138,-1.27544 6.1647,-4.03889 2.5508,-2.97602 3.4011,-6.58976 1.0629,-3.82631 1.0629,-7.65263 v -8.71549 h -12.967 q -2.5508,0 -5.1017,0.21257 -2.3383,0.21257 -4.8892,0.85029 -2.3383,0.63772 -4.6766,1.70059 -2.3383,0.85029 -4.2515,2.55087 -1.9131,1.48801 -2.97597,3.82632 -0.85029,2.3383 -0.85029,4.88918 0,3.18859 1.48801,6.16461 1.48805,2.97603 4.03885,4.88918 2.7635,1.91316 5.9521,2.55088 3.1886,0.63772 6.3772,0.63772 z m 82.6909,64.40962 q 2.3383,-7.65263 4.464,-15.51783 2.1257,-7.65263 4.2515,-15.30526 l 3.8263,-14.24239 -31.2483,-111.17568 h 24.4459 l 19.1316,80.56517 4.8892,-20.83216 13.3921,-59.73301 h 24.4459 l -43.1523,156.24116 z m 120.1037,-44.00262 q -6.5898,0 -12.9669,-1.91315 -6.1647,-2.12573 -10.6287,-6.80234 -4.2515,-4.6766 -6.1646,-10.84122 -1.9132,-6.37719 -1.9132,-12.75438 0,-5.73947 1.2755,-11.26637 1.488,-5.5269 4.8891,-9.99093 3.4012,-4.46403 8.0778,-7.44006 4.8892,-3.18859 9.991,-4.88917 5.3143,-1.91316 10.8412,-2.55088 5.7394,-0.63772 11.2663,-0.63772 h 12.967 v -7.22748 q 0,-3.61374 -1.0629,-6.80234 -1.0628,-3.40117 -3.6137,-5.73947 -2.3383,-2.55087 -5.7395,-3.61374 -3.4011,-1.06286 -6.8023,-1.06286 -3.1886,0 -6.1646,0.63771 -2.9761,0.63772 -5.5269,2.55088 -2.5509,1.70058 -4.0389,4.67661 -1.488,2.76345 -1.488,5.73947 v 0.42514 h -23.5956 v -1.06286 q 0,-4.88918 1.488,-9.56579 1.488,-4.88918 4.2514,-8.92806 2.7635,-4.25146 6.8024,-7.01491 4.2514,-2.97602 8.7155,-4.67661 4.6766,-1.91315 9.5658,-2.55087 5.1017,-0.63772 9.9909,-0.63772 5.3143,0 10.4161,0.85029 5.3143,0.63772 9.9909,2.76345 4.8892,2.12573 8.9281,5.73947 4.0388,3.40117 6.5897,8.07777 2.7635,4.46404 3.8263,9.77836 1.0629,5.10175 1.0629,10.41608 v 74.61312 h -23.5956 v -15.7304 q -1.9132,3.82631 -4.6766,7.44005 -2.7635,3.40117 -6.5898,5.73947 -3.6137,2.33831 -7.8652,3.1886 -4.2514,1.06286 -8.5029,1.06286 z m 9.7784,-20.407 q 3.6137,0 7.2274,-1.27544 3.6138,-1.27544 6.1647,-4.03889 2.5508,-2.97602 3.4011,-6.58976 1.0629,-3.82631 1.0629,-7.65263 v -8.71549 h -12.967 q -2.5508,0 -5.1017,0.21257 -2.3383,0.21257 -4.8892,0.85029 -2.3383,0.63772 -4.6766,1.70059 -2.3383,0.85029 -4.2515,2.55087 -1.9131,1.48801 -2.976,3.82632 -0.8503,2.3383 -0.8503,4.88918 0,3.18859 1.488,6.16461 1.4881,2.97603 4.0389,4.88918 2.7635,1.91316 5.9521,2.55088 3.1886,0.63772 6.3772,0.63772 z"
         id="text1"
         style="font-weight:bold;font-size:212.573px;font-family:Iosevka;-inkscape-font-specification:'Iosevka Bold';fill:#ffffff;stroke-width:3.32146"
         inkscape:label="my name"
         aria-label="Jorge Araya" /></g><image
       width="477.59378"
       height="477.59378"
       preserveAspectRatio="none"
       style="image-rendering:optimizeQuality"
       xlink:href="../../static/images/me.jpg"
       id="image1-6"
       x="1399.8749"
       y="261.20312"
       inkscape:label="me"
       clip-path="url(#clipPath2)" /></g></svg>
